<?xml version="1.0" encoding="utf-8"?>
<!-- Generator: Adobe Illustrator 17.0.0, SVG Export Plug-In . SVG Version: 6.00 Build 0)  -->
<!DOCTYPE svg PUBLIC "-//W3C//DTD SVG 1.1//EN" "http://www.w3.org/Graphics/SVG/1.1/DTD/svg11.dtd">
<svg version="1.1" id="Layer_1" xmlns="http://www.w3.org/2000/svg" xmlns:xlink="http://www.w3.org/1999/xlink" x="0px" y="0px"
	 width="130px" height="130px" viewBox="0 0 130 130" enable-background="new 0 0 130 130" xml:space="preserve">
<g>
	<path fill="#511A56" d="M5,43.006c0-5.5,3.96-12.137,8.8-14.75L56.7,5.102c4.84-2.612,12.76-2.612,17.6,0l42.9,23.154
		c4.84,2.612,8.8,9.25,8.8,14.75v45.306c0,5.5-3.96,12.137-8.8,14.75l-42.9,23.154c-4.84,2.612-12.76,2.612-17.6,0l-42.9-23.154
		C8.96,100.45,5,93.812,5,88.312V43.006z"/>
</g>
<g>
	<path fill="#FFFFFF" d="M83.95,28.936c-4.674-0.334-8.18,4.508-8.347,9.516c0.167,3.506,1.669,6.01,3.506,7.513
		c-1.836,3.172-3.84,6.344-5.676,9.516c-1.002-0.668-2.17-1.002-3.506-1.002c-1.669-0.167-3.172,0.501-4.341,1.669
		c-2.17-2.671-4.341-5.509-6.511-8.18c0.334-0.835,0.668-1.836,0.668-2.838c0.167-3.673-2.838-6.344-5.843-6.511
		c-3.339-0.167-5.676,3.172-5.843,6.511c0,1.002,0.334,2.003,0.668,2.838c-1.836,2.337-3.506,4.674-5.342,7.012
		c-0.835-0.668-1.669-1.002-2.838-1.002c-2.838-0.167-4.841,2.671-5.008,5.676c-0.167,3.172,2.337,5.509,5.008,5.509
		c2.838,0.167,4.841-2.671,5.008-5.509c0-1.002-0.334-2.003-0.835-2.838c1.336-1.836,2.671-3.506,4.007-5.342
		c0.334-0.501,0.668-1.002,1.169-1.502c1.002,1.002,2.337,1.669,4.007,1.836c1.502,0.167,3.005-0.668,4.007-1.836
		c2.17,2.671,4.174,5.342,6.344,7.846c-1.002,1.503-1.503,3.172-1.669,5.008c0.167,4.674,3.172,8.013,7.346,8.347
		c4.174,0.334,7.179-4.007,7.346-8.347c0.167-2.337-0.835-4.507-2.337-6.01c2.003-3.339,3.84-6.511,5.843-9.85
		c4.841,2.003,11.018-0.835,11.352-8.514C92.631,33.109,88.457,29.27,83.95,28.936"/>
	<path fill="#FFFFFF" d="M28.19,97.55l4.007-13.356h3.172l4.007,13.356h-2.504l-0.835-3.005h-4.674l-0.835,3.005H28.19z
		 M32.03,92.542h3.339l-1.669-6.01L32.03,92.542z"/>
	<path fill="#FFFFFF" d="M40.544,97.55v-9.683h2.17v1.169c0.668-0.501,1.169-0.835,1.502-1.002c0.501-0.167,0.835-0.334,1.336-0.334
		c0.835,0,1.502,0.334,2.003,0.835c0.501,0.501,0.668,1.336,0.668,2.337v6.678h-2.337v-6.177c0-0.668-0.167-1.002-0.334-1.336
		c-0.167-0.334-0.501-0.334-0.835-0.334c-0.334,0-0.668,0.167-1.002,0.334c-0.334,0.167-0.668,0.501-1.169,0.835v6.678H40.544z"/>
	<path fill="#FFFFFF" d="M55.736,97.55l-0.167-0.835c-0.501,0.334-0.835,0.501-1.336,0.668c-0.501,0.167-1.002,0.167-1.502,0.167
		c-0.835,0-1.502-0.167-1.836-0.668c-0.501-0.501-0.668-1.002-0.668-1.836c0-1.002,0.501-1.836,1.336-2.504
		c0.835-0.668,2.337-1.002,4.174-1.336v-0.835c0-0.334-0.167-0.668-0.334-0.835c-0.167-0.167-0.501-0.334-1.002-0.334
		s-0.835,0.167-1.169,0.334c-0.334,0.167-0.668,0.501-1.002,0.835l-1.502-1.002c0.334-0.668,0.835-1.169,1.502-1.336
		c0.668-0.334,1.336-0.501,2.17-0.501c1.169,0,2.003,0.334,2.671,0.835s1.002,1.169,1.002,2.17v5.676c0,0.167,0,0.334,0,0.501
		c0,0.167,0,0.501,0.167,0.835L55.736,97.55L55.736,97.55z M55.569,92.876c-1.169,0.167-1.836,0.334-2.337,0.668
		c-0.501,0.334-0.835,0.835-0.835,1.336c0,0.334,0.167,0.501,0.334,0.835c0.167,0.334,0.501,0.334,0.835,0.334
		c0.334,0,0.668,0,1.002-0.334c0.334-0.167,0.668-0.501,1.002-0.835L55.569,92.876L55.569,92.876z"/>
	<path fill="#FFFFFF" d="M60.077,97.55V84.194h2.337V97.55H60.077z"/>
	<path fill="#FFFFFF" d="M67.088,97.216l-3.339-9.349h2.337l2.17,6.344l2.003-6.344h2.17l-3.005,9.015
		c-0.501,1.669-1.169,2.838-1.669,3.339c-0.501,0.501-1.336,0.668-2.17,0.668c-0.167,0-0.334,0-0.501,0
		c-0.167,0-0.334,0-0.501-0.167v-1.836c0.167,0,0.334,0,0.501,0c0.167,0,0.334,0,0.501,0c0.501,0,0.835-0.167,1.169-0.501
		C66.755,98.385,66.922,97.884,67.088,97.216z"/>
	<path fill="#FFFFFF" d="M76.27,94.712c0,0.501,0,0.835,0.167,0.835c0.167,0.167,0.334,0.167,0.668,0.167c0.167,0,0.334,0,0.501,0
		c0.167,0,0.334,0,0.501,0v1.836c-0.334,0-0.501,0.167-0.835,0.167s-0.668,0-1.002,0c-0.835,0-1.336-0.167-1.669-0.501
		c-0.334-0.334-0.501-1.002-0.501-1.669v-5.676h-1.169v-1.836H74.1v-3.005h2.337v3.005h1.836v1.836h-1.836v4.841H76.27z"/>
	<path fill="#FFFFFF" d="M79.609,86.365v-2.17h2.337v2.17H79.609z M79.609,97.55v-9.683h2.337v9.683H79.609z"/>
	<path fill="#FFFFFF" d="M89.793,94.378l1.836,1.002c-0.334,0.835-0.835,1.336-1.503,1.836c-0.668,0.334-1.336,0.668-2.337,0.668
		c-1.336,0-2.337-0.501-3.172-1.336c-0.668-0.835-1.002-2.003-1.002-3.673c0-1.503,0.334-2.838,1.169-3.673
		c0.668-0.835,1.836-1.336,3.005-1.336c0.835,0,1.669,0.167,2.337,0.668c0.668,0.501,1.169,1.002,1.336,1.836l-1.836,0.835
		c-0.167-0.501-0.334-0.835-0.668-1.169c-0.334-0.167-0.668-0.334-1.002-0.334c-0.668,0-1.169,0.334-1.503,0.835
		c-0.501,0.334-0.668,1.169-0.668,2.337c0,1.002,0.167,1.669,0.501,2.17c0.334,0.501,0.835,0.668,1.336,0.668
		s0.835-0.167,1.169-0.334C89.292,95.213,89.459,94.879,89.793,94.378z"/>
	<path fill="#FFFFFF" d="M92.464,95.881l1.503-1.169c0.334,0.501,0.668,0.835,1.169,1.002c0.334,0.167,0.668,0.334,1.169,0.334
		c0.334,0,0.668-0.167,1.002-0.334c0.167-0.167,0.334-0.501,0.334-0.835c0-0.501-0.501-0.835-1.503-1.336
		c-0.167,0-0.167,0-0.167-0.167c-1.169-0.501-2.003-0.835-2.337-1.336c-0.334-0.501-0.668-1.002-0.668-1.669
		c0-0.835,0.334-1.503,1.002-2.003c0.668-0.501,1.336-0.835,2.337-0.835c0.668,0,1.336,0.167,1.836,0.334s1.002,0.668,1.503,1.169
		l-1.503,1.169c-0.334-0.334-0.668-0.501-1.002-0.668c-0.334-0.167-0.668-0.167-1.002-0.167c-0.334,0-0.668,0.167-0.835,0.334
		c-0.167,0.167-0.334,0.334-0.334,0.668c0,0.334,0.501,0.668,1.503,1.169c0.334,0.167,0.501,0.167,0.668,0.167
		c1.002,0.334,1.669,0.835,2.17,1.169c0.334,0.501,0.501,1.002,0.501,1.836s-0.334,1.669-1.002,2.17
		c-0.668,0.501-1.503,0.835-2.504,0.835c-0.835,0-1.503-0.167-2.17-0.501C93.466,97.049,92.965,96.548,92.464,95.881z"/>
</g>
</svg>
