<?xml version="1.0" encoding="utf-8"?>
<!-- Generator: Adobe Illustrator 17.0.0, SVG Export Plug-In . SVG Version: 6.00 Build 0)  -->
<!DOCTYPE svg PUBLIC "-//W3C//DTD SVG 1.1//EN" "http://www.w3.org/Graphics/SVG/1.1/DTD/svg11.dtd">
<svg version="1.1" id="Layer_1" xmlns="http://www.w3.org/2000/svg" xmlns:xlink="http://www.w3.org/1999/xlink" x="0px" y="0px"
	 width="130px" height="130px" viewBox="0 0 130 130" enable-background="new 0 0 130 130" xml:space="preserve">
<g>
	<path fill="#D07928" d="M5,42.469c0-5.5,3.96-12.137,8.8-14.75L56.7,4.566c4.84-2.612,12.76-2.612,17.6,0l42.9,23.154
		c4.84,2.612,8.8,9.25,8.8,14.75v45.306c0,5.5-3.96,12.137-8.8,14.75l-42.9,23.154c-4.84,2.612-12.76,2.612-17.6,0l-42.9-23.154
		C8.96,99.913,5,93.276,5,87.776V42.469z"/>
</g>
<g>
	<path fill="#FFFFFF" d="M52.022,94.872l2.337,0.668c-0.334,1.169-0.835,2.003-1.836,2.671s-1.836,1.002-3.172,1.002
		c-1.669,0-3.005-0.501-4.007-1.669c-1.002-1.169-1.336-2.838-1.336-5.175c0-2.17,0.501-3.84,1.336-5.175
		c0.835-1.336,2.337-1.836,4.007-1.836c1.169,0,2.17,0.334,3.005,0.835c0.835,0.668,1.336,1.503,1.503,2.671l-2.337,0.501
		c-0.167-0.668-0.501-1.169-0.835-1.503c-0.334-0.334-0.835-0.501-1.503-0.501c-0.835,0-1.669,0.334-2.003,1.169
		c-0.501,0.835-0.668,2.003-0.668,3.673c0,1.503,0.167,2.671,0.668,3.506s1.169,1.169,2.17,1.169c0.668,0,1.169-0.167,1.669-0.501
		C51.522,96.041,51.856,95.54,52.022,94.872z"/>
	<path fill="#FFFFFF" d="M56.029,98.879V85.523h2.337v13.356H56.029z"/>
	<path fill="#FFFFFF" d="M60.036,94.037c0-1.503,0.334-2.838,1.169-3.673c0.668-0.835,1.669-1.336,3.005-1.336
		c1.336,0,2.337,0.501,3.005,1.336c0.668,0.835,1.169,2.17,1.169,3.673s-0.334,2.838-1.169,3.673
		c-0.668,0.835-1.669,1.336-3.005,1.336c-1.336,0-2.337-0.501-3.005-1.336S60.036,95.54,60.036,94.037z M62.373,94.037
		c0,1.002,0.167,1.836,0.501,2.337c0.334,0.501,0.835,0.835,1.336,0.835c0.668,0,1.002-0.334,1.336-0.835s0.501-1.336,0.501-2.337
		c0-1.002-0.167-1.836-0.501-2.337c-0.334-0.501-0.835-0.668-1.336-0.668c-0.668,0-1.002,0.334-1.336,0.835
		C62.373,92.368,62.373,93.036,62.373,94.037z"/>
	<path fill="#FFFFFF" d="M75.562,97.71c-0.501,0.501-1.169,0.835-1.503,1.002c-0.501,0.167-1.002,0.334-1.503,0.334
		c-0.835,0-1.503-0.334-2.003-0.835s-0.668-1.336-0.668-2.337v-6.678h2.337v6.344c0,0.668,0.167,1.002,0.334,1.336
		c0.167,0.334,0.501,0.334,0.835,0.334s0.668-0.167,1.002-0.334c0.334-0.167,0.668-0.501,1.169-0.835v-6.845h2.337v9.683h-2.17
		V97.71H75.562z"/>
	<path fill="#FFFFFF" d="M85.745,97.877c-0.334,0.334-0.668,0.668-1.169,0.835c-0.501,0.167-0.835,0.334-1.503,0.334
		c-1.169,0-2.003-0.501-2.671-1.336c-0.668-1.002-1.002-2.17-1.002-3.673s0.334-2.671,1.002-3.673
		c0.668-1.002,1.503-1.336,2.671-1.336c0.501,0,0.835,0.167,1.336,0.334c0.334,0.167,0.668,0.501,1.002,0.835v-4.674h2.17v11.185
		c0,0.167,0,0.501,0,0.835c0,0.334,0,0.835,0,1.336h-1.836L85.745,97.877z M85.411,96.375v-4.507
		c-0.334-0.334-0.668-0.501-0.835-0.668c-0.334-0.167-0.501-0.167-0.835-0.167c-0.668,0-1.169,0.334-1.503,0.835
		s-0.501,1.336-0.501,2.337c0,1.002,0.167,1.669,0.501,2.337c0.334,0.668,0.835,0.835,1.503,0.835c0.334,0,0.501,0,0.835-0.167
		C84.91,96.875,85.077,96.541,85.411,96.375z"/>
	<path fill="#FFFFFF" d="M62.874,49.63c1.836-1.669,4.007-2.003,6.177-1.002c2.17,1.169,3.339,3.172,3.84,5.843
		c0.501,0.167,1.002,0.167,1.336,0.334c1.669,0.501,3.005,1.836,3.673,3.673c1.002,0,2.003,0,2.838,0
		c-0.668-3.172-2.671-5.676-5.342-6.678c-0.167,0-0.334-0.334-0.501-0.501c-1.836-4.841-6.01-7.513-10.351-6.177
		c-0.334,0-0.334,0-0.501-0.167c-0.668-1.169-1.336-2.003-2.003-2.838c-0.501,1.169-0.668,2.504-0.668,3.84
		C61.872,46.959,62.54,48.128,62.874,49.63z"/>
	<path fill="#FFFFFF" d="M76.73,65.824c-0.835,0.835-1.836,1.503-3.005,1.669c-0.334,0-0.668,0.167-0.835,0.167
		c-9.015,0-18.197,0-27.212,0c-3.172,0-5.676-3.005-5.509-6.845c0.167-2.671,1.669-5.008,3.84-5.843
		c0.167,0,0.334-0.167,0.501-0.167c-0.835-6.344,2.671-11.853,7.513-13.022c1.336-0.334,2.504-0.334,3.673,0
		c0.167-1.002,0.501-2.17,1.002-3.172c-1.169-0.334-2.504-0.334-4.007-0.334c-6.01,0.668-10.684,6.678-11.018,13.856
		c0,0.334-0.167,0.501-0.334,0.835c-2.838,2.17-4.174,6.177-3.673,10.017c0.835,4.841,4.174,8.013,8.18,8.013
		c4.508,0,9.015,0,13.523,0s9.015,0,13.523,0c0.668,0,1.336,0,2.003-0.334c2.337-0.668,4.174-2.504,5.342-4.841
		c-0.668,0-1.503,0-2.17,0C77.565,65.824,77.064,65.824,76.73,65.824z"/>
	<path fill="#FFFFFF" d="M74.56,63.82c-4.507,0-9.015,0-13.522,0c-4.174,0-7.346-3.339-8.18-8.013
		c-0.668-3.84,0.835-7.846,3.673-10.017c0.334-0.167,0.334-0.334,0.334-0.835c0.334-7.179,5.008-13.189,11.018-13.856
		c4.841-0.501,8.681,1.836,11.519,6.511c0.167,0.334,0.334,0.334,0.501,0.167c4.341-1.169,8.681,1.336,10.351,6.177
		c0,0.167,0.334,0.334,0.501,0.501c3.506,1.502,5.843,5.342,5.676,9.85c-0.167,4.341-2.671,8.013-6.344,9.015
		c-0.668,0.167-1.336,0.334-2.003,0.334C83.575,63.82,79.067,63.82,74.56,63.82z M59.702,47.627c-0.167,0-0.334,0.167-0.501,0.167
		c-2.17,0.835-3.673,3.172-3.84,5.843c-0.167,3.84,2.337,6.845,5.509,6.845c9.015,0,18.197,0,27.212,0c0.334,0,0.668,0,0.835-0.167
		c2.504-0.501,4.507-3.005,4.674-6.01c0.167-3.172-1.669-6.01-4.174-6.678c-0.501-0.167-1.002-0.167-1.336-0.334
		c-0.334-2.838-1.669-4.841-3.84-5.843c-2.17-1.169-4.174-0.668-6.177,1.002c-1.503-5.843-6.344-9.015-11.185-7.846
		C62.373,35.774,58.867,41.283,59.702,47.627z"/>
</g>
</svg>
