<?xml version="1.0" encoding="utf-8"?>
<!-- Generator: Adobe Illustrator 17.0.0, SVG Export Plug-In . SVG Version: 6.00 Build 0)  -->
<!DOCTYPE svg PUBLIC "-//W3C//DTD SVG 1.1//EN" "http://www.w3.org/Graphics/SVG/1.1/DTD/svg11.dtd">
<svg version="1.1" id="Layer_1" xmlns="http://www.w3.org/2000/svg" xmlns:xlink="http://www.w3.org/1999/xlink" x="0px" y="0px"
	 width="630px" height="370px" viewBox="0 0 630 370" enable-background="new 0 0 630 370" xml:space="preserve">
<g>
	<path fill="#244677" d="M446.537,99.626c-1.715-1.715-3.595-3.215-5.621-4.486c-0.664-0.417-1.344-0.81-2.039-1.177L332.938,32.797
		c-0.945-0.615-1.922-1.179-2.93-1.692c-0.669-0.34-1.351-0.657-2.046-0.951c-3.942-1.667-8.13-2.513-12.446-2.513
		c-4.317,0-8.504,0.845-12.446,2.513c-0.745,0.315-1.475,0.657-2.189,1.025c-0.911,0.469-1.797,0.981-2.656,1.534L191.941,94.075
		c-0.55,0.296-1.091,0.609-1.622,0.936c-2.104,1.299-4.053,2.841-5.826,4.614c-1.978,1.978-3.669,4.175-5.055,6.562l0.058,0.034
		l55.278,31.915l0.058,0.033l80.674,46.577l80.686-46.584l0.058-0.033l55.278-31.915l0.058-0.034
		C450.203,103.797,448.513,101.602,446.537,99.626z"/>
	<path fill="#520456" d="M315,277.904v-0.053c-3,0.001-4,0.001,0,0v-93.156l-80.418-46.577c0.007-0.012,0.1-0.023,0.107-0.034
		l-55.299-31.896c-2.573,4.418-3.92,9.487-4.151,14.914c0,0-0.062,126.939-0.05,127.302c0.131,3.931,0.974,7.746,2.5,11.355
		c1.61,3.808,3.919,7.227,6.856,10.164c1.647,1.647,3.447,3.095,5.381,4.334c0.817,0.523,1.659,1.009,2.523,1.456
		c0.231,0.12,0.464,0.235,0.698,0.35l104.459,60.31c0.253,0.169,0.509,0.334,0.767,0.496l-0.147-0.085
		c0.859,0.553,1.745,1.065,2.656,1.534l-0.413-0.239c1.751,0.924,3.343,1.691,5.265,2.279c3.066,0.958,6.268,1.443,9.268,1.443
		v-0.053c0,0,0-0.001,0-0.001v-63.841C315,277.905,315,277.904,315,277.904z"/>
	<path fill="#226570" d="M456,119.838v0.914c0-5.279-1.866-10.227-4.378-14.537l-55.325,31.915l-0.335,0.033L315,184.748v93.183
		v0.053v63.844V342c0,0,0.513,0,0.515,0c4.317,0,8.504-0.918,12.446-2.586c0.695-0.294,1.377-0.648,2.046-0.988l2.93-1.71
		c0.013-0.008,0.025-0.024,0.038-0.032l105.45-60.886c-0.688,0.351-1.39,0.677-2.105,0.979c-3.449,1.459-7.087,2.288-10.834,2.472
		c3.747-0.185,7.384-1.015,10.834-2.474c0.716-0.303,1.418-0.63,2.105-0.982c0.966-0.493,1.902-1.035,2.81-1.622
		c1.884-1.22,3.639-2.639,5.249-4.249c2.937-2.937,5.335-6.356,6.945-10.164c1.474-3.485,2.571-7.161,2.571-10.949v-2.995V124.632
		c0-0.794,0.088-1.593,0.088-2.397C456.088,121.432,456,120.632,456,119.838z M344.975,322.326
		c-0.696,1.646-1.521,3.219-2.472,4.712C343.454,325.545,344.279,323.971,344.975,322.326c1.667-3.943,2.511-8.13,2.511-12.446
		c0,0,0,0.001,0,0.001C347.486,314.198,346.643,318.384,344.975,322.326z M424.278,279.286c0.269-0.003,0.538-0.01,0.806-0.02
		C424.816,279.276,424.547,279.283,424.278,279.286z"/>
	<polygon fill="#F9EFCF" points="385,225.269 315,265.524 315,184.748 385,144.546 	"/>
	<polygon fill="#F8C961" points="385.116,144.546 315.396,184.748 245.806,144.493 315.507,104.238 	"/>
	<polygon fill="#BA700F" points="245.709,225.269 315,265.524 315,184.748 245.509,144.493 	"/>
	<path fill="none" stroke="#000000" stroke-width="52" stroke-miterlimit="10" d="M238.627,162.355"/>
	<path fill="#2D2D2D" d="M314.731,360.72c-6.695,0-13.017-1.523-17.8-4.288l-121.317-70.247C165.815,280.52,158,266.68,158,255.334
		V114.801c0-11.344,7.816-25.184,17.617-30.851l121.412-70.247c4.782-2.765,11.065-4.288,17.76-4.288
		c6.695,0,12.997,1.523,17.779,4.288L454.136,83.95C463.936,89.616,472,103.455,472,114.801v140.533
		c0,11.344-8.075,25.184-17.876,30.851l-121.542,70.247C327.8,359.197,321.427,360.72,314.731,360.72z M314.75,15.092
		c-5.631,0-11.083,1.285-14.958,3.526L177.621,88.865C169.522,93.547,162,105.424,162,114.801v140.533
		c0,9.378,7.52,21.255,15.618,25.936l121.816,70.247c3.875,2.24,9.497,3.526,15.128,3.526s11.168-1.285,15.043-3.526l122.473-70.247
		c8.098-4.682,15.922-16.56,15.922-25.936V114.801c0-9.378-7.78-21.255-15.877-25.936L330.178,18.618
		C326.303,16.377,320.38,15.092,314.75,15.092z"/>
	<path fill="#520456" d="M315.396,277.851"/>
</g>
</svg>
