<?xml version="1.0" encoding="utf-8"?>
<!-- Generator: Adobe Illustrator 17.0.0, SVG Export Plug-In . SVG Version: 6.00 Build 0)  -->
<!DOCTYPE svg PUBLIC "-//W3C//DTD SVG 1.1//EN" "http://www.w3.org/Graphics/SVG/1.1/DTD/svg11.dtd">
<svg version="1.1" id="Layer_1" xmlns="http://www.w3.org/2000/svg" xmlns:xlink="http://www.w3.org/1999/xlink" x="0px" y="0px"
	 width="200px" height="62.667px" viewBox="0 0 200 62.667" enable-background="new 0 0 200 62.667" xml:space="preserve">
<g>
	<path fill="#2D2D2D" d="M59.835,43.993c-0.763,0-1.483-0.174-2.028-0.489l-13.811-8.004C42.879,34.855,42,33.278,42,31.985V15.973
		c0-1.293,0.879-2.869,1.996-3.515l13.828-8.004c0.545-0.315,1.258-0.489,2.021-0.489c0.763,0,1.479,0.173,2.024,0.489l13.974,8.004
		C76.959,13.104,78,14.68,78,15.973v16.012c0,1.293-1.043,2.869-2.16,3.515l-13.91,8.004C61.385,43.819,60.598,43.993,59.835,43.993
		z M59.837,4.612c-0.642,0-1.263,0.146-1.704,0.402l-13.637,8.004C43.573,13.551,43,14.905,43,15.973v16.012
		c0,1.069,0.573,2.422,1.496,2.955l13.738,8.004c0.442,0.255,1.011,0.402,1.653,0.402s1.237-0.146,1.679-0.402l13.788-8.004
		C76.275,34.407,77,33.054,77,31.985V15.973c0-1.069-0.737-2.422-1.66-2.955L61.52,5.014C61.079,4.759,60.479,4.612,59.837,4.612z"
		/>
	<path fill="#520456" d="M60,23.925c0,0,0,17.114,0,17.792c-1-0.031-1.385-0.154-2.393-0.737c-3.938-2.277-10.72-6.181-11.419-6.586
		c-1.036-0.599-2.129-1.603-2.131-3.651c0-0.505-0.023-8.435-0.023-13.107c0-0.694,0.027-1.689,0.639-2.605
		C45.112,15.288,60,23.925,60,23.925z"/>
	<path fill="#226570" d="M60,24.082c0,0,14.721-8.61,15.307-8.951c0.463,0.858,0.502,1.226,0.505,2.391
		c0.014,4.549,0.021,12.351,0.023,13.158c0.003,1.196-0.329,2.634-2.099,3.666c-0.436,0.254-7.217,4.258-11.254,6.608
		C61.882,41.304,61,41.825,60,41.757C60,41.249,60,24.082,60,24.082z"/>
	<path fill="#244677" d="M60.009,23.992c0,0-14.793-8.604-15.38-8.945c0.517-0.827,0.801-1.072,1.812-1.651
		c3.948-2.26,10.719-6.136,11.42-6.536c1.039-0.594,2.449-1.023,4.22,0.006c0.436,0.254,7.3,4.227,11.338,6.575
		c0.6,0.349,1.472,0.828,1.956,1.818C74.935,15.51,60.009,23.992,60.009,23.992z"/>
	<polygon points="59.944,24.475 59.944,24.226 60.159,24.351 	"/>
	<polygon fill="#F9EFCF" points="68,28.792 68,19.478 60.011,24.135 60,24.166 60,33.418 60.011,33.449 	"/>
	<polygon fill="#F8C961" points="68.083,19.478 60.052,14.821 59.998,14.852 52.02,19.478 59.998,24.104 60.052,24.135 	"/>
	<polygon fill="#BA700F" points="60,24.166 60,24.104 52,19.478 52,28.792 60,33.418 	"/>
</g>
<path fill="#FFFFFF" d="M8.733,41.848H2.157V5.937h22.867v5.502H8.733v9.286h13.93v5.502H8.733V41.848z"/>
<path fill="#FFFFFF" d="M30.755,5.827h6.224v6.393h-6.224V5.827z M30.904,17.743h5.924v24.105h-5.924V17.743z"/>
<path fill="#FFFFFF" d="M100.881,6.245v29.998h16.574v5.428H94.394V6.245H100.881z"/>
<path fill="#FFFFFF" d="M137.449,39.121h-0.099c-0.33,0.347-0.727,0.702-1.188,1.064c-0.462,0.363-0.99,0.705-1.584,1.027
	c-0.594,0.322-1.254,0.582-1.98,0.78c-0.726,0.198-1.51,0.297-2.352,0.297c-1.139,0-2.203-0.178-3.193-0.532
	c-0.99-0.355-1.84-0.866-2.55-1.535c-0.71-0.668-1.267-1.477-1.671-2.426c-0.405-0.949-0.606-2.009-0.606-3.181
	c0-1.287,0.235-2.442,0.706-3.466c0.47-1.023,1.126-1.889,1.968-2.599c0.842-0.709,1.848-1.25,3.02-1.621
	c1.172-0.371,2.467-0.557,3.887-0.557c1.04,0,1.996,0.066,2.871,0.198c0.875,0.132,1.642,0.289,2.302,0.47v-0.965
	c0-0.561-0.095-1.102-0.285-1.621c-0.19-0.52-0.495-0.982-0.916-1.386c-0.421-0.404-0.97-0.726-1.646-0.965
	c-0.677-0.239-1.502-0.359-2.475-0.359c-1.188,0-2.377,0.132-3.565,0.396c-1.188,0.264-2.475,0.66-3.862,1.188v-4.579
	c1.204-0.528,2.484-0.932,3.837-1.213c1.353-0.28,2.772-0.429,4.258-0.446c1.749,0,3.28,0.215,4.592,0.644
	c1.312,0.429,2.409,1.019,3.292,1.77c0.883,0.751,1.543,1.638,1.98,2.661c0.437,1.023,0.656,2.137,0.656,3.342v9.035
	c0,1.584,0.016,2.946,0.049,4.084c0.033,1.139,0.066,2.154,0.099,3.045h-5.298L137.449,39.121z M136.979,31.447
	c-0.561-0.132-1.205-0.251-1.931-0.359c-0.726-0.107-1.46-0.161-2.203-0.161c-1.436,0-2.571,0.285-3.404,0.854
	c-0.833,0.569-1.25,1.44-1.25,2.612c0,0.545,0.095,1.019,0.285,1.423c0.189,0.405,0.446,0.739,0.767,1.003
	c0.322,0.264,0.697,0.462,1.126,0.594c0.429,0.132,0.883,0.198,1.362,0.198c0.594,0,1.155-0.078,1.683-0.235
	c0.528-0.157,1.015-0.355,1.461-0.594c0.446-0.239,0.845-0.507,1.201-0.805c0.355-0.297,0.656-0.586,0.904-0.866V31.447z"/>
<path fill="#FFFFFF" d="M170.694,29.268c0,2.162-0.314,4.076-0.941,5.743c-0.627,1.667-1.448,3.037-2.463,4.109
	c-1.015,1.073-2.158,1.869-3.429,2.389c-1.271,0.52-2.55,0.78-3.837,0.78c-0.908,0-1.725-0.112-2.451-0.334
	c-0.726-0.223-1.361-0.499-1.906-0.829c-0.544-0.33-1.002-0.676-1.374-1.04c-0.371-0.363-0.664-0.685-0.879-0.965h-0.099
	l-0.569,2.55h-4.852c0.033-0.709,0.062-1.588,0.087-2.636c0.025-1.048,0.037-2.042,0.037-2.983V5.826h5.867v9.976
	c0,0.71-0.004,1.366-0.012,1.968c-0.009,0.603-0.021,1.069-0.037,1.399h0.049c0.38-0.264,0.792-0.52,1.238-0.767
	c0.446-0.247,0.932-0.47,1.46-0.668c0.528-0.198,1.097-0.355,1.708-0.47c0.61-0.115,1.254-0.173,1.931-0.173
	c1.337,0,2.636,0.244,3.899,0.73c1.262,0.487,2.385,1.23,3.367,2.228c0.982,0.999,1.762,2.277,2.339,3.837
	C170.405,25.444,170.694,27.239,170.694,29.268z M164.629,29.565c0-1.501-0.182-2.793-0.544-3.874
	c-0.363-1.081-0.838-1.906-1.424-2.475s-1.197-0.953-1.832-1.151c-0.635-0.198-1.267-0.297-1.894-0.297
	c-0.858,0-1.733,0.173-2.624,0.52c-0.891,0.346-1.7,0.809-2.426,1.386V35.16c0.231,0.264,0.516,0.541,0.854,0.829
	c0.338,0.289,0.718,0.553,1.139,0.792c0.421,0.239,0.879,0.437,1.374,0.594c0.495,0.157,1.023,0.235,1.584,0.235
	c0.957,0,1.795-0.194,2.513-0.582c0.718-0.387,1.32-0.936,1.807-1.646c0.486-0.709,0.854-1.555,1.101-2.537
	C164.505,31.864,164.629,30.77,164.629,29.565z"/>
<path fill="#FFFFFF" d="M188.95,34.714c0-0.511-0.145-0.932-0.433-1.262c-0.289-0.33-0.673-0.606-1.151-0.829
	c-0.479-0.223-1.027-0.417-1.646-0.582c-0.619-0.165-1.267-0.33-1.943-0.495c-0.858-0.231-1.683-0.499-2.475-0.804
	c-0.792-0.305-1.49-0.705-2.092-1.201c-0.603-0.495-1.081-1.118-1.436-1.869c-0.355-0.751-0.532-1.671-0.532-2.76
	c0-1.337,0.239-2.496,0.718-3.478c0.478-0.982,1.126-1.795,1.943-2.438c0.817-0.644,1.766-1.122,2.847-1.436
	c1.081-0.313,2.224-0.47,3.429-0.47c1.469,0,2.847,0.12,4.134,0.359c1.287,0.239,2.451,0.549,3.49,0.928v4.778
	c-0.544-0.182-1.118-0.35-1.72-0.508c-0.603-0.157-1.213-0.293-1.832-0.408c-0.619-0.115-1.234-0.21-1.844-0.285
	c-0.611-0.074-1.188-0.111-1.733-0.111c-0.693,0-1.279,0.066-1.757,0.198c-0.479,0.132-0.867,0.309-1.164,0.532
	s-0.512,0.479-0.643,0.767c-0.132,0.289-0.198,0.59-0.198,0.904c0,0.545,0.144,0.99,0.433,1.337
	c0.288,0.347,0.689,0.627,1.201,0.842c0.511,0.215,1.048,0.392,1.609,0.532c0.561,0.14,1.105,0.276,1.634,0.408
	c0.825,0.198,1.65,0.437,2.475,0.718c0.825,0.281,1.568,0.673,2.228,1.176c0.66,0.504,1.201,1.155,1.621,1.956
	c0.421,0.801,0.631,1.819,0.631,3.057c0,1.353-0.256,2.533-0.767,3.54c-0.512,1.007-1.225,1.844-2.141,2.513
	c-0.916,0.668-2.014,1.163-3.293,1.485c-1.279,0.322-2.686,0.483-4.221,0.483c-1.518,0-2.884-0.12-4.097-0.359
	c-1.213-0.239-2.216-0.54-3.008-0.904v-4.728c1.287,0.479,2.475,0.805,3.565,0.978c1.089,0.173,2.104,0.26,3.045,0.26
	c0.726,0,1.402-0.053,2.03-0.161c0.627-0.107,1.167-0.276,1.622-0.507c0.454-0.231,0.812-0.524,1.077-0.879
	C188.818,35.635,188.95,35.209,188.95,34.714z"/>
<g>
	<path fill="#FFFFFF" d="M96.377,54.22l-1.823-7.184h0.981l0.853,3.635c0.213,0.906,0.405,1.791,0.533,2.484h0.021
		c0.117-0.714,0.341-1.567,0.586-2.494l0.959-3.624h0.97l0.874,3.645c0.202,0.863,0.394,1.705,0.501,2.462h0.021
		c0.149-0.789,0.352-1.588,0.576-2.484l0.949-3.624h0.949l-2.036,7.184h-0.97l-0.906-3.731c-0.224-0.927-0.373-1.631-0.469-2.356
		h-0.021c-0.117,0.725-0.288,1.418-0.554,2.345l-1.023,3.741H96.377z"/>
	<path fill="#FFFFFF" d="M104.372,51.811c0.021,1.258,0.821,1.78,1.759,1.78c0.671,0,1.087-0.117,1.428-0.267l0.171,0.672
		c-0.331,0.149-0.906,0.33-1.727,0.33c-1.578,0-2.537-1.055-2.537-2.601c0-1.556,0.928-2.782,2.43-2.782
		c1.684,0,2.121,1.482,2.121,2.43c0,0.192-0.011,0.33-0.032,0.437H104.372z M107.112,51.139c0.011-0.597-0.245-1.524-1.29-1.524
		c-0.959,0-1.364,0.874-1.439,1.524H107.112z"/>
	<path fill="#FFFFFF" d="M115.074,52.983c0,0.448,0.021,0.885,0.074,1.236h-0.842l-0.085-0.65h-0.032
		c-0.277,0.405-0.842,0.767-1.578,0.767c-1.045,0-1.578-0.735-1.578-1.482c0-1.247,1.109-1.929,3.102-1.919V50.83
		c0-0.426-0.117-1.204-1.173-1.194c-0.49,0-0.991,0.138-1.354,0.384l-0.213-0.629c0.426-0.267,1.055-0.448,1.705-0.448
		c1.588,0,1.972,1.077,1.972,2.111V52.983z M114.158,51.587c-1.023-0.021-2.185,0.16-2.185,1.162c0,0.618,0.405,0.895,0.874,0.895
		c0.682,0,1.119-0.426,1.268-0.863c0.032-0.096,0.043-0.202,0.043-0.299V51.587z"/>
	<path fill="#FFFFFF" d="M116.578,46.652h0.938v7.568h-0.938V46.652z"/>
	<path fill="#FFFFFF" d="M119.467,49.061l0.693,2.611c0.138,0.576,0.277,1.119,0.373,1.652h0.032
		c0.117-0.522,0.288-1.077,0.458-1.641l0.842-2.622h0.789l0.799,2.58c0.192,0.607,0.341,1.162,0.458,1.684h0.032
		c0.085-0.522,0.224-1.066,0.394-1.673l0.735-2.59h0.928l-1.663,5.159h-0.853l-0.789-2.462c-0.181-0.586-0.331-1.098-0.459-1.705
		h-0.021c-0.128,0.618-0.288,1.162-0.469,1.716l-0.832,2.452h-0.853l-1.556-5.159H119.467z"/>
	<path fill="#FFFFFF" d="M130.532,52.983c0,0.448,0.021,0.885,0.074,1.236h-0.842l-0.085-0.65h-0.032
		c-0.277,0.405-0.842,0.767-1.578,0.767c-1.045,0-1.578-0.735-1.578-1.482c0-1.247,1.109-1.929,3.102-1.919V50.83
		c0-0.426-0.117-1.204-1.173-1.194c-0.49,0-0.991,0.138-1.354,0.384l-0.213-0.629c0.426-0.267,1.055-0.448,1.705-0.448
		c1.588,0,1.972,1.077,1.972,2.111V52.983z M129.615,51.587c-1.023-0.021-2.185,0.16-2.185,1.162c0,0.618,0.405,0.895,0.874,0.895
		c0.682,0,1.119-0.426,1.268-0.863c0.032-0.096,0.043-0.202,0.043-0.299V51.587z"/>
	<path fill="#FFFFFF" d="M132.291,49.061l1.119,3.049c0.128,0.341,0.256,0.746,0.341,1.055h0.021
		c0.096-0.309,0.203-0.703,0.331-1.077l1.023-3.027h0.991l-1.407,3.677c-0.672,1.769-1.13,2.665-1.77,3.23
		c-0.469,0.395-0.917,0.554-1.151,0.597l-0.234-0.778c0.234-0.075,0.543-0.224,0.821-0.458c0.256-0.203,0.565-0.565,0.789-1.045
		c0.043-0.096,0.075-0.17,0.075-0.224s-0.021-0.128-0.075-0.245l-1.897-4.754H132.291z"/>
	<path fill="#FFFFFF" d="M136.779,53.26c0.288,0.17,0.778,0.362,1.247,0.362c0.671,0,0.991-0.331,0.991-0.767
		c0-0.448-0.267-0.682-0.949-0.938c-0.938-0.341-1.375-0.853-1.375-1.46c0-0.831,0.682-1.514,1.78-1.514
		c0.522,0,0.981,0.139,1.258,0.32l-0.224,0.671c-0.203-0.117-0.576-0.298-1.055-0.298c-0.554,0-0.853,0.32-0.853,0.703
		c0,0.426,0.298,0.618,0.97,0.885c0.885,0.33,1.354,0.778,1.354,1.546c0,0.917-0.714,1.556-1.919,1.556
		c-0.565,0-1.087-0.149-1.45-0.362L136.779,53.26z"/>
	<path fill="#FFFFFF" d="M143.474,54.22v-4.445h-0.714v-0.714h0.714v-0.288c0-1.354,0.81-2.238,2.26-2.238
		c0.48,0,1.045,0.149,1.311,0.341l-0.267,0.714c-0.235-0.16-0.629-0.299-1.087-0.299c-0.991,0-1.29,0.693-1.29,1.514v0.256h3.006
		v5.159h-0.938v-4.445h-2.057v4.445H143.474z"/>
	<path fill="#FFFFFF" d="M153.376,53.463c0,1.194-0.245,1.908-0.735,2.366c-0.512,0.458-1.236,0.618-1.887,0.618
		c-0.618,0-1.3-0.149-1.716-0.426l0.234-0.725c0.341,0.224,0.874,0.416,1.514,0.416c0.959,0,1.663-0.501,1.663-1.812v-0.565h-0.021
		c-0.277,0.48-0.842,0.864-1.642,0.864c-1.279,0-2.196-1.087-2.196-2.526c0-1.748,1.141-2.729,2.334-2.729
		c0.895,0,1.375,0.458,1.609,0.895h0.021l0.032-0.778h0.831c-0.032,0.362-0.043,0.789-0.043,1.407V53.463z M152.439,51.086
		c0-0.149-0.011-0.288-0.053-0.416c-0.171-0.554-0.618-1.002-1.311-1.002c-0.895,0-1.535,0.757-1.535,1.961
		c0,1.002,0.522,1.855,1.524,1.855c0.586,0,1.109-0.362,1.3-0.97c0.053-0.149,0.075-0.331,0.075-0.501V51.086z"/>
	<path fill="#FFFFFF" d="M159.239,52.802c0,0.544,0.011,1.013,0.043,1.418h-0.831l-0.053-0.842h-0.021
		c-0.234,0.416-0.789,0.959-1.705,0.959c-0.81,0-1.78-0.458-1.78-2.26v-3.016h0.938v2.846c0,0.981,0.309,1.652,1.151,1.652
		c0.629,0,1.066-0.437,1.236-0.863c0.053-0.128,0.085-0.299,0.085-0.48v-3.155h0.938V52.802z"/>
	<path fill="#FFFFFF" d="M160.796,50.67c0-0.607-0.011-1.13-0.043-1.609h0.821l0.043,1.013h0.032c0.234-0.693,0.81-1.13,1.439-1.13
		c0.096,0,0.171,0.011,0.256,0.021v0.885c-0.096-0.011-0.192-0.021-0.32-0.021c-0.661,0-1.13,0.501-1.258,1.194
		c-0.021,0.139-0.032,0.288-0.032,0.437v2.761h-0.938V50.67z"/>
	<path fill="#FFFFFF" d="M164.709,51.811c0.021,1.258,0.821,1.78,1.759,1.78c0.671,0,1.087-0.117,1.428-0.267l0.171,0.672
		c-0.331,0.149-0.906,0.33-1.727,0.33c-1.578,0-2.537-1.055-2.537-2.601c0-1.556,0.928-2.782,2.43-2.782
		c1.684,0,2.121,1.482,2.121,2.43c0,0.192-0.011,0.33-0.032,0.437H164.709z M167.448,51.139c0.011-0.597-0.245-1.524-1.29-1.524
		c-0.959,0-1.364,0.874-1.439,1.524H167.448z"/>
	<path fill="#FFFFFF" d="M172.224,48.187c-0.341,0-0.565-0.267-0.565-0.576c0-0.33,0.235-0.586,0.586-0.586
		c0.341,0,0.576,0.256,0.576,0.586c0,0.309-0.224,0.576-0.586,0.576H172.224z M171.776,54.22v-5.159h0.938v5.159H171.776z"/>
	<path fill="#FFFFFF" d="M175.401,47.824v1.236h1.343v0.714h-1.343v2.771c0,0.639,0.181,1.002,0.703,1.002
		c0.256,0,0.405-0.021,0.544-0.064l0.043,0.714c-0.181,0.064-0.469,0.128-0.831,0.128c-0.437,0-0.789-0.149-1.013-0.394
		c-0.256-0.288-0.362-0.746-0.362-1.354v-2.803h-0.799v-0.714h0.799v-0.949L175.401,47.824z"/>
	<path fill="#FFFFFF" d="M182.159,54.337c-1.386,0-2.473-1.023-2.473-2.654c0-1.727,1.141-2.739,2.558-2.739
		c1.481,0,2.483,1.077,2.483,2.644c0,1.919-1.332,2.75-2.558,2.75H182.159z M182.202,53.634c0.895,0,1.567-0.842,1.567-2.015
		c0-0.874-0.437-1.972-1.545-1.972c-1.098,0-1.578,1.023-1.578,2.004c0,1.13,0.64,1.983,1.546,1.983H182.202z"/>
	<path fill="#FFFFFF" d="M190.229,52.802c0,0.544,0.011,1.013,0.043,1.418h-0.831l-0.053-0.842h-0.021
		c-0.234,0.416-0.789,0.959-1.705,0.959c-0.81,0-1.78-0.458-1.78-2.26v-3.016h0.938v2.846c0,0.981,0.309,1.652,1.151,1.652
		c0.629,0,1.066-0.437,1.236-0.863c0.053-0.128,0.085-0.299,0.085-0.48v-3.155h0.938V52.802z"/>
	<path fill="#FFFFFF" d="M192.915,47.824v1.236h1.343v0.714h-1.343v2.771c0,0.639,0.181,1.002,0.703,1.002
		c0.256,0,0.405-0.021,0.544-0.064l0.043,0.714c-0.181,0.064-0.469,0.128-0.831,0.128c-0.437,0-0.789-0.149-1.013-0.394
		c-0.256-0.288-0.362-0.746-0.362-1.354v-2.803h-0.799v-0.714h0.799v-0.949L192.915,47.824z"/>
</g>
<text transform="matrix(1 0 0 1 93.75 85.3333)" font-family="'MyriadPro-Regular'" font-size="12">sdcsdcsdvdsvdsv</text>
</svg>
