<?xml version="1.0" encoding="utf-8"?>
<!-- Generator: Adobe Illustrator 17.0.0, SVG Export Plug-In . SVG Version: 6.00 Build 0)  -->
<!DOCTYPE svg PUBLIC "-//W3C//DTD SVG 1.1//EN" "http://www.w3.org/Graphics/SVG/1.1/DTD/svg11.dtd">
<svg version="1.1" id="Layer_1" xmlns="http://www.w3.org/2000/svg" xmlns:xlink="http://www.w3.org/1999/xlink" x="0px" y="0px"
	 width="130px" height="130px" viewBox="0 0 130 130" enable-background="new 0 0 130 130" xml:space="preserve">
<g>
	<path fill="none" stroke="#474748" stroke-width="2" stroke-miterlimit="10" d="M5,42.469c0-5.5,3.96-12.137,8.8-14.75L56.7,4.566
		c4.84-2.612,12.76-2.612,17.6,0l42.9,23.154c4.84,2.612,8.8,9.25,8.8,14.75v45.306c0,5.5-3.96,12.137-8.8,14.75L74.3,125.68
		c-4.84,2.612-12.76,2.612-17.6,0l-42.9-23.154C8.96,99.913,5,93.276,5,87.776V42.469z"/>
</g>
<g>
	<g>
		<path fill="#474748" d="M35.501,55.983c0.355,1.216,0.847,2.389,1.47,3.489l-1.774,2.237c-0.579,0.731-0.514,1.774,0.138,2.432
			l3.055,3.055c0.659,0.659,1.701,0.717,2.432,0.137l2.222-1.759c1.144,0.659,2.36,1.173,3.627,1.535l0.333,2.859
			c0.109,0.927,0.89,1.622,1.817,1.622h4.322c0.927,0,1.708-0.695,1.817-1.622l0.319-2.758c1.361-0.355,2.664-0.883,3.887-1.571
			l2.15,1.701c0.731,0.579,1.774,0.514,2.432-0.138l3.055-3.055c0.659-0.659,0.717-1.701,0.138-2.432l-1.672-2.121
			c0.695-1.202,1.238-2.483,1.6-3.822l2.577-0.297c0.927-0.109,1.622-0.89,1.622-1.817v-4.322c0-0.927-0.695-1.708-1.622-1.817
			l-2.541-0.297c-0.348-1.325-0.869-2.592-1.535-3.779l1.564-1.976c0.579-0.731,0.514-1.774-0.138-2.432l-3.048-3.048
			c-0.659-0.659-1.701-0.717-2.432-0.138l-1.918,1.52c-1.245-0.731-2.577-1.289-3.974-1.665l-0.29-2.483
			c-0.109-0.927-0.89-1.622-1.817-1.622h-4.322c-0.927,0-1.708,0.695-1.817,1.622l-0.29,2.483c-1.433,0.384-2.802,0.963-4.076,1.723
			l-1.991-1.578c-0.731-0.579-1.774-0.514-2.432,0.138l-3.055,3.055c-0.659,0.659-0.717,1.701-0.138,2.432l1.665,2.107
			c-0.666,1.202-1.173,2.483-1.506,3.815L32.691,47.7c-0.927,0.109-1.622,0.89-1.622,1.817v4.322c0,0.927,0.695,1.708,1.622,1.817
			L35.501,55.983z M51.159,44.292c3.938,0,7.145,3.207,7.145,7.145s-3.207,7.145-7.145,7.145s-7.145-3.207-7.145-7.145
			S47.221,44.292,51.159,44.292z"/>
		<path fill="#474748" d="M93.885,57.048l-2.28-1.926c-0.702-0.594-1.737-0.565-2.403,0.065l-1.26,1.18
			c-1.064-0.514-2.193-0.876-3.359-1.086l-0.355-1.737c-0.181-0.898-1.013-1.52-1.926-1.448l-2.975,0.253
			c-0.912,0.08-1.629,0.825-1.658,1.745l-0.058,1.766c-1.144,0.413-2.223,0.977-3.207,1.687l-1.506-0.999
			c-0.768-0.507-1.788-0.362-2.382,0.34l-1.926,2.295c-0.594,0.702-0.565,1.737,0.065,2.403l1.318,1.404
			c-0.456,1.028-0.782,2.107-0.97,3.214l-1.882,0.384c-0.898,0.181-1.52,1.013-1.448,1.926l0.253,2.975
			c0.08,0.912,0.825,1.629,1.745,1.658l2.034,0.065c0.369,0.97,0.854,1.89,1.441,2.751l-1.136,1.716
			c-0.507,0.767-0.362,1.788,0.34,2.382l2.28,1.926c0.702,0.594,1.737,0.565,2.403-0.065l1.491-1.397
			c0.977,0.456,2.005,0.796,3.062,0.999L80,83.565c0.181,0.898,1.013,1.52,1.926,1.448l2.975-0.253
			c0.912-0.08,1.629-0.825,1.658-1.745l0.065-1.998c1.086-0.384,2.114-0.905,3.062-1.549l1.643,1.086
			c0.767,0.507,1.788,0.362,2.382-0.34l1.926-2.28c0.594-0.702,0.565-1.737-0.065-2.403l-1.325-1.404
			c0.485-1.028,0.84-2.114,1.042-3.229l1.81-0.369c0.898-0.181,1.52-1.013,1.448-1.926l-0.253-2.975
			c-0.08-0.912-0.825-1.629-1.745-1.658l-1.817-0.058c-0.377-1.057-0.883-2.056-1.513-2.983l0.992-1.491
			C94.732,58.669,94.587,57.641,93.885,57.048z M82.671,74.248c-3.214,0.275-6.052-2.121-6.32-5.335
			c-0.275-3.214,2.121-6.052,5.335-6.32c3.214-0.275,6.052,2.121,6.32,5.335C88.282,71.142,85.885,73.98,82.671,74.248z"/>
		<path fill="#474748" d="M45.911,82.255c-0.912,0.094-1.614,0.861-1.622,1.781l-0.022,1.832c-0.014,0.919,0.666,1.701,1.578,1.817
			l1.346,0.174c0.224,0.818,0.543,1.6,0.956,2.338l-0.869,1.071c-0.579,0.717-0.536,1.745,0.109,2.403l1.281,1.31
			c0.644,0.659,1.672,0.731,2.403,0.166l1.079-0.833c0.76,0.449,1.564,0.804,2.403,1.05l0.145,1.39
			c0.094,0.912,0.861,1.614,1.781,1.622l1.832,0.022c0.919,0.014,1.701-0.666,1.817-1.578l0.167-1.318
			c0.912-0.224,1.781-0.565,2.606-1.013l1.013,0.818c0.717,0.579,1.745,0.536,2.403-0.109l1.31-1.281
			c0.659-0.644,0.731-1.672,0.167-2.403l-0.775-1.006c0.478-0.796,0.847-1.643,1.1-2.534l1.202-0.123
			c0.912-0.094,1.614-0.861,1.622-1.781l0.022-1.832c0.015-0.919-0.666-1.701-1.578-1.817l-1.173-0.152
			c-0.224-0.883-0.557-1.737-0.992-2.534l0.731-0.898c0.579-0.717,0.536-1.745-0.109-2.403l-1.281-1.31
			c-0.644-0.659-1.672-0.731-2.403-0.167l-0.876,0.673c-0.825-0.5-1.708-0.883-2.635-1.144l-0.116-1.137
			c-0.094-0.912-0.861-1.614-1.781-1.622l-1.832-0.022c-0.919-0.014-1.701,0.666-1.817,1.578l-0.145,1.129
			c-0.956,0.246-1.875,0.623-2.729,1.115l-0.905-0.738c-0.717-0.579-1.745-0.536-2.403,0.109l-1.318,1.289
			c-0.659,0.644-0.731,1.672-0.167,2.403l0.775,0.999c-0.449,0.796-0.804,1.643-1.035,2.534L45.911,82.255z M57.732,80.184
			c2.628,0.029,4.734,2.194,4.705,4.821c-0.029,2.628-2.194,4.734-4.821,4.705c-2.628-0.029-4.734-2.193-4.705-4.821
			C52.94,82.262,55.104,80.155,57.732,80.184z"/>
	</g>
</g>
</svg>
