<?xml version="1.0" encoding="utf-8"?>
<!-- Generator: Adobe Illustrator 17.0.0, SVG Export Plug-In . SVG Version: 6.00 Build 0)  -->
<!DOCTYPE svg PUBLIC "-//W3C//DTD SVG 1.1//EN" "http://www.w3.org/Graphics/SVG/1.1/DTD/svg11.dtd">
<svg version="1.1" id="Layer_1" xmlns="http://www.w3.org/2000/svg" xmlns:xlink="http://www.w3.org/1999/xlink" x="0px" y="0px"
	 width="130px" height="130px" viewBox="0 0 130 130" enable-background="new 0 0 130 130" xml:space="preserve">
<g>
	<path fill="#F8BD49" d="M5,42.933c0-5.5,3.96-12.137,8.8-14.75L56.7,5.029c4.84-2.612,12.76-2.612,17.6,0l42.9,23.154
		c4.84,2.612,8.8,9.25,8.8,14.75v45.306c0,5.5-3.96,12.137-8.8,14.75l-42.9,23.154c-4.84,2.612-12.76,2.612-17.6,0l-42.9-23.154
		c-4.84-2.612-8.8-9.25-8.8-14.75V42.933z"/>
</g>
<g>
	<path fill="#FFFFFF" d="M67.933,70.649c-5.551,0-11.287,0-16.837,0c-5.181,0-9.251-3.886-10.176-9.621
		c-0.74-4.626,1.11-9.436,4.441-11.842c0.37-0.185,0.37-0.555,0.555-0.925c0.37-8.511,6.291-15.727,13.692-16.467
		c6.106-0.555,10.917,2.035,14.432,7.771c0.185,0.37,0.37,0.37,0.74,0.37c5.366-1.48,10.732,1.48,12.952,7.401
		c0.185,0.185,0.37,0.555,0.555,0.555c4.441,1.665,7.216,6.476,7.031,11.842c-0.185,5.181-3.33,9.621-7.956,10.732
		c-0.925,0.185-1.665,0.37-2.59,0.37C79.035,70.649,73.484,70.649,67.933,70.649z M49.245,51.406c-0.185,0-0.37,0.185-0.555,0.185
		c-2.59,0.925-4.626,3.886-4.626,7.031c-0.185,4.626,2.96,8.141,6.846,8.141c11.287,0,22.573,0,34.045,0c0.37,0,0.74,0,1.11-0.185
		c3.145-0.555,5.551-3.701,5.736-7.216c0.185-3.701-2.035-7.031-5.181-7.956c-0.555-0.185-1.11-0.185-1.665-0.37
		c-0.555-3.33-2.035-5.736-4.626-7.031c-2.775-1.295-5.366-0.74-7.771,1.11c-1.85-6.846-7.956-10.732-13.877-9.436
		C52.576,37.344,48.32,43.82,49.245,51.406z"/>
	<path fill="#FFFFFF" d="M77.554,48.631H58.312c-0.74,0-1.295,0.555-1.295,1.295v2.405c0,0.74,0.555,1.295,1.295,1.295h19.243
		c0.74,0,1.295-0.555,1.295-1.295v-2.405C78.85,49.186,78.295,48.631,77.554,48.631z M75.704,52.146
		c-0.555,0-0.925-0.37-0.925-0.925c0-0.555,0.37-0.925,0.925-0.925c0.555,0,0.925,0.37,0.925,0.925
		C76.629,51.776,76.259,52.146,75.704,52.146z"/>
	<path fill="#FFFFFF" d="M77.369,54.551H58.312c-0.74,0-1.295,0.555-1.295,1.295v2.405c0,0.74,0.555,1.295,1.295,1.295h19.243
		c0.74,0,1.295-0.555,1.295-1.295v-2.405C78.85,55.292,78.11,54.551,77.369,54.551z M75.704,58.252c-0.555,0-0.925-0.37-0.925-0.925
		s0.37-0.925,0.925-0.925c0.555,0,0.925,0.37,0.925,0.925C76.629,57.697,76.259,58.252,75.704,58.252z"/>
	<path fill="#FFFFFF" d="M77.369,60.657H58.312c-0.74,0-1.295,0.555-1.295,1.295v2.405c0,0.74,0.555,1.295,1.295,1.295h19.243
		c0.74,0,1.295-0.555,1.295-1.295v-2.405C78.85,61.212,78.11,60.657,77.369,60.657z M75.704,64.173c-0.555,0-0.925-0.37-0.925-0.925
		c0-0.555,0.37-0.925,0.925-0.925c0.555,0,0.925,0.37,0.925,0.925C76.629,63.803,76.259,64.173,75.704,64.173z"/>
	<path fill="#FFFFFF" d="M44.065,99.698V86.191h2.59v5.366h5.181v-5.366h2.59v13.507h-2.59v-5.921h-5.181v5.921H44.065z"/>
	<path fill="#FFFFFF" d="M55.166,99.698l4.071-13.507h3.145l4.071,13.507h-2.59l-0.925-2.96h-4.626l-0.925,2.96H55.166z
		 M58.867,94.517h3.516l-1.665-6.106L58.867,94.517z"/>
	<path fill="#FFFFFF" d="M67.193,99.698V86.191h2.775l3.886,6.846c0.37,0.555,0.555,1.11,0.74,1.665
		c0.185,0.555,0.555,1.11,0.74,1.665c0-0.37-0.185-0.74-0.185-1.295c0-0.37,0-0.925,0-1.48v-7.216h2.405v13.507h-2.405l-4.256-7.031
		c-0.185-0.37-0.555-0.925-0.74-1.48c-0.185-0.555-0.555-1.11-0.74-1.85c0,0.37,0.185,0.74,0.185,1.295c0,0.37,0,0.925,0,1.48v7.401
		H67.193z"/>
	<path fill="#FFFFFF" d="M78.295,99.698l4.071-13.507h3.145l4.071,13.507h-2.59l-0.925-2.96H81.44l-0.925,2.96H78.295z
		 M82.18,94.517h3.516l-1.665-6.106L82.18,94.517z"/>
</g>
</svg>
