<?xml version="1.0" encoding="utf-8"?>
<!-- Generator: Adobe Illustrator 17.0.0, SVG Export Plug-In . SVG Version: 6.00 Build 0)  -->
<!DOCTYPE svg PUBLIC "-//W3C//DTD SVG 1.1//EN" "http://www.w3.org/Graphics/SVG/1.1/DTD/svg11.dtd">
<svg version="1.1" id="Layer_1" xmlns="http://www.w3.org/2000/svg" xmlns:xlink="http://www.w3.org/1999/xlink" x="0px" y="0px"
	 width="130px" height="130px" viewBox="0 0 130 130" enable-background="new 0 0 130 130" xml:space="preserve">
<g>
	<path fill="#256670" d="M5,42.469c0-5.5,3.96-12.137,8.8-14.75L56.7,4.566c4.84-2.612,12.76-2.612,17.6,0l42.9,23.154
		c4.84,2.612,8.8,9.25,8.8,14.75v45.306c0,5.5-3.96,12.137-8.8,14.75l-42.9,23.154c-4.84,2.612-12.76,2.612-17.6,0l-42.9-23.154
		C8.96,99.913,5,93.276,5,87.776V42.469z"/>
</g>
<g>
	<path fill="#FFFFFF" d="M50.058,52.143c2.337,0,4.674,0,7.012,0c0.167,0,0.334,0,0.668,0c0.167,2.838,1.336,5.175,3.673,6.845
		c1.669,1.169,3.673,1.836,5.843,1.669c4.007-0.167,8.347-3.339,8.514-8.514c2.504,0,5.175,0,7.679,0c0,0.835,0,1.669,0,2.504
		c-0.835,0.167-1.836,0.167-2.671,0.334c-0.501,0-0.835,0.334-1.002,0.668c-0.334,1.002-0.835,2.17-1.336,3.172
		c-0.167,0.334-0.167,0.501,0.167,0.668c0.501,0.668,1.169,1.336,1.669,2.17c-1.169,1.169-2.504,2.337-3.673,3.506
		c-0.668-0.501-1.503-1.002-2.17-1.669c-0.167-0.167-0.334-0.167-0.668-0.167c-1.002,0.334-2.17,0.835-3.172,1.169
		c-0.668,0.167-0.835,0.501-0.835,1.169c-0.167,0.835-0.167,1.669-0.334,2.504c-1.669,0-3.339,0-5.008,0
		c-0.167-0.835-0.334-1.669-0.334-2.504c0-0.501-0.334-0.835-0.835-1.002c-1.169-0.334-2.17-0.835-3.339-1.336
		c-0.334-0.167-0.501-0.167-0.668,0.167c-0.668,0.501-1.502,1.169-2.337,1.669c-1.169-1.169-2.337-2.337-3.673-3.506
		c0.668-0.668,1.169-1.503,1.669-2.17c0.167-0.167,0.334-0.501,0.167-0.668c-0.501-1.002-0.835-2.17-1.336-3.172
		c-0.167-0.501-0.501-0.668-0.835-0.668c-1.002-0.167-1.836-0.167-2.838-0.334C50.058,53.813,50.058,52.978,50.058,52.143z"/>
	<path fill="#FFFFFF" d="M66.92,23.095c0.334,0,0.668,0.167,1.002,0.167c2.337,0.501,3.506,1.836,3.84,4.507
		c0.334,3.506-0.501,6.678-3.005,9.349c-1.503,1.669-3.84,1.669-5.342,0.167c-0.835-0.668-1.336-1.502-1.836-2.504
		c-1.002-2.17-1.503-4.341-1.336-6.845c0.167-2.504,1.836-4.341,4.341-4.674c0.167,0,0.334,0,0.334-0.167
		C65.584,23.095,66.252,23.095,66.92,23.095z"/>
	<path fill="#FFFFFF" d="M64.583,46.3c0.167-0.668,0.167-1.336,0.334-2.003c0.167-1.002,0.334-2.003-0.167-3.005
		c-0.167-0.501,0-0.835,0.501-0.835s1.169,0,1.669,0s0.668,0.334,0.501,0.668c-0.501,0.835-0.334,1.669-0.167,2.504
		c0.167,0.668,0.167,1.502,0.334,2.17c0,0.167,0,0.334,0.167,0.334c0,0,0,0,0.167,0c0.668-2.17,1.503-4.507,2.17-6.678
		c1.336,0.334,2.671,0.668,3.84,1.002c1.169,0.334,2.337,0.668,3.673,1.002c1.002,0.334,1.836,1.002,2.003,2.003
		c0.334,1.336,0.501,2.838,0.668,4.174c0,0.835,0,1.669,0,2.504c-9.349,0-18.698,0-28.047,0c0-0.835,0.167-1.502,0.167-2.337
		c0.167-1.502,0.334-2.838,0.501-4.341c0.167-1.002,0.668-1.669,1.669-2.003c2.671-0.668,5.175-1.336,7.846-2.003
		c0.668,2.17,1.503,4.341,2.17,6.678C64.416,46.467,64.416,46.467,64.583,46.3z"/>
	<path fill="#FFFFFF" d="M33.197,89.372V77.185h3.339l1.669,5.843c0.167,0.501,0.334,1.002,0.334,1.503
		c0.167,0.501,0.167,1.002,0.334,1.503c0.167-0.501,0.167-0.835,0.334-1.336c0.167-0.501,0.334-1.002,0.501-1.669l1.836-5.843h3.172
		v12.187h-2.003V79.188c-0.167,0.501-0.167,0.835-0.334,1.336c-0.167,0.501-0.167,0.835-0.334,1.336l-2.17,7.512h-1.669
		l-2.337-7.513c-0.167-0.835-0.334-1.336-0.501-1.669C35.2,79.856,35.2,79.522,35.2,79.188v10.184H33.197z"/>
	<path fill="#FFFFFF" d="M51.561,89.372l-0.167-0.835c-0.334,0.334-0.835,0.501-1.169,0.668c-0.501,0.167-0.835,0.167-1.336,0.167
		c-0.668,0-1.336-0.167-1.669-0.668c-0.501-0.334-0.668-1.002-0.668-1.669c0-1.002,0.334-1.669,1.169-2.337
		c0.835-0.501,2.003-1.002,3.84-1.169v-0.668c0-0.334-0.167-0.501-0.334-0.668c-0.167-0.167-0.501-0.334-0.835-0.334
		c-0.334,0-0.835,0.167-1.002,0.334c-0.334,0.167-0.668,0.501-0.835,0.668l-1.336-0.835c0.334-0.501,0.835-1.002,1.336-1.336
		c0.501-0.334,1.169-0.501,2.003-0.501c1.002,0,1.836,0.167,2.337,0.668s0.835,1.169,0.835,1.836v5.175c0,0.167,0,0.334,0,0.501
		c0,0.167,0,0.501,0.167,0.668h-2.337V89.372z M51.394,85.031c-1.002,0.167-1.669,0.334-2.17,0.668
		c-0.501,0.334-0.668,0.668-0.668,1.169c0,0.334,0,0.501,0.167,0.668c0.167,0.167,0.334,0.167,0.668,0.167
		c0.334,0,0.668,0,1.002-0.167c0.334-0.167,0.668-0.334,1.002-0.668L51.394,85.031L51.394,85.031z"/>
	<path fill="#FFFFFF" d="M55.568,89.372v-8.681h1.836v1.002c0.501-0.501,1.002-0.835,1.503-1.002
		c0.334-0.167,0.835-0.334,1.336-0.334c0.835,0,1.503,0.167,1.836,0.668c0.334,0.501,0.668,1.169,0.668,2.17v6.01h-2.003v-5.676
		c0-0.501,0-1.002-0.167-1.169c-0.167-0.167-0.334-0.334-0.835-0.334c-0.334,0-0.668,0-1.002,0.167
		c-0.334,0.167-0.668,0.334-1.002,0.668v6.344h-2.17V89.372z"/>
	<path fill="#FFFFFF" d="M69.424,89.372l-0.167-0.835c-0.334,0.334-0.835,0.501-1.169,0.668c-0.501,0.167-0.835,0.167-1.336,0.167
		c-0.668,0-1.336-0.167-1.669-0.668c-0.501-0.334-0.668-1.002-0.668-1.669c0-1.002,0.334-1.669,1.169-2.337
		c0.835-0.501,2.003-1.002,3.84-1.169v-0.668c0-0.334-0.167-0.501-0.334-0.668c-0.167-0.167-0.501-0.334-0.835-0.334
		c-0.334,0-0.835,0.167-1.002,0.334c-0.334,0.167-0.668,0.501-0.835,0.668l-1.336-0.835c0.334-0.501,0.835-1.002,1.336-1.336
		c0.501-0.334,1.169-0.501,2.003-0.501c1.002,0,1.836,0.167,2.337,0.668c0.501,0.501,0.835,1.169,0.835,1.836v5.175
		c0,0.167,0,0.334,0,0.501c0,0.167,0,0.501,0.167,0.668h-2.337V89.372z M69.09,85.031c-1.002,0.167-1.669,0.334-2.17,0.668
		c-0.501,0.334-0.668,0.668-0.668,1.169c0,0.334,0,0.501,0.167,0.668c0.167,0.167,0.334,0.167,0.668,0.167s0.668,0,1.002-0.167
		c0.334-0.167,0.668-0.334,1.002-0.668L69.09,85.031L69.09,85.031z"/>
	<path fill="#FFFFFF" d="M74.098,88.704c-0.501-0.167-0.668-0.334-0.835-0.668c-0.167-0.167-0.334-0.501-0.334-0.668
		c0-0.334,0.167-0.668,0.334-0.835c0.167-0.334,0.501-0.501,1.002-0.668c-0.334-0.167-0.668-0.501-0.835-1.002
		c-0.167-0.501-0.334-0.835-0.334-1.336c0-0.835,0.334-1.669,1.002-2.17s1.336-0.835,2.337-0.835c0.334,0,0.835,0,1.169,0.167
		c0.334,0.167,0.668,0.334,1.002,0.501c0.167-0.334,0.501-0.501,0.668-0.668c0.334-0.167,0.501-0.167,0.835-0.167h0.167
		c0,0,0,0,0.167,0v1.503l0,0c-0.167,0-0.334,0-0.334,0c-0.167,0-0.334,0-0.334,0c-0.167,0-0.167,0.167-0.334,0.167
		c0.167,0.167,0.167,0.334,0.334,0.668c0.167,0.334,0.167,0.501,0.167,0.835c0,0.835-0.334,1.503-0.835,2.003
		c-0.668,0.501-1.336,0.835-2.337,0.835c-0.167,0-0.334,0-0.501,0c-0.167,0-0.334,0-0.501,0c-0.167,0-0.334,0.167-0.501,0.334
		C75.1,86.868,75.1,86.868,75.1,87.035c0,0.334,0.501,0.501,1.669,0.668c0.334,0,0.501,0,0.668,0
		c1.169,0.167,2.17,0.334,2.504,0.668c0.501,0.334,0.668,0.835,0.668,1.669c0,0.835-0.334,1.503-1.002,2.003
		c-0.668,0.501-1.669,0.668-3.005,0.668c-1.169,0-2.17-0.167-2.838-0.501c-0.668-0.334-1.002-0.835-1.002-1.669
		c0-0.334,0.167-0.668,0.334-1.002C73.097,89.038,73.598,88.871,74.098,88.704z M75.434,89.205
		c-0.334,0.167-0.501,0.334-0.668,0.501c-0.167,0.167-0.167,0.334-0.167,0.501c0,0.334,0.167,0.501,0.501,0.668
		c0.334,0.167,0.668,0.334,1.169,0.334c0.668,0,1.169-0.167,1.669-0.334c0.334-0.167,0.668-0.501,0.668-0.835
		c0-0.167-0.167-0.334-0.334-0.501c-0.167-0.167-0.501-0.167-0.835-0.167L75.434,89.205z M74.933,83.529
		c0,0.501,0.167,0.835,0.334,1.002c0.167,0.167,0.668,0.334,1.002,0.334c0.501,0,0.835-0.167,1.002-0.334
		c0.167-0.167,0.334-0.668,0.334-1.002c0-0.501-0.167-0.835-0.334-1.002c-0.334-0.334-0.668-0.334-1.002-0.334
		c-0.334,0-0.668,0.167-1.002,0.334C75.1,82.694,74.933,83.028,74.933,83.529z"/>
	<path fill="#FFFFFF" d="M88.289,87.702c-0.334,0.668-0.835,1.169-1.336,1.336c-0.668,0.334-1.336,0.501-2.17,0.501
		c-1.169,0-2.003-0.334-2.671-1.169c-0.668-0.835-1.002-1.836-1.002-3.339s0.334-2.504,1.002-3.339
		c0.668-0.835,1.503-1.169,2.671-1.169c1.169,0,2.003,0.334,2.671,1.169c0.668,0.835,1.002,1.836,1.002,3.339v0.167
		c0,0.167,0,0.167,0,0.167H83.28c0,0.835,0.167,1.503,0.501,1.836c0.334,0.334,0.835,0.668,1.336,0.668
		c0.334,0,0.668-0.167,1.002-0.334c0.334-0.167,0.501-0.501,0.835-0.835L88.289,87.702z M83.113,83.863h3.172
		c0-0.501-0.167-1.002-0.501-1.336c-0.334-0.334-0.668-0.501-1.169-0.501s-0.835,0.167-1.169,0.501
		C83.447,82.861,83.28,83.195,83.113,83.863z"/>
	<path fill="#FFFFFF" d="M95.133,88.37c-0.334,0.334-0.668,0.668-1.002,0.835c-0.334,0.167-0.835,0.334-1.336,0.334
		c-1.002,0-1.836-0.501-2.504-1.336c-0.668-0.835-1.002-2.003-1.002-3.339s0.334-2.504,1.002-3.339s1.503-1.336,2.337-1.336
		c0.501,0,0.835,0,1.169,0.167c0.334,0.167,0.668,0.334,1.002,0.835v-4.174h2.003v10.017c0,0.167,0,0.501,0,0.835
		c0,0.334,0,0.668,0,1.169h-1.669L95.133,88.37z M94.8,87.035v-4.174c-0.334-0.334-0.501-0.501-0.835-0.501
		c-0.167-0.167-0.501-0.167-0.835-0.167c-0.501,0-1.002,0.167-1.336,0.668c-0.334,0.501-0.501,1.169-0.501,2.17
		c0,0.835,0.167,1.669,0.501,2.003c0.334,0.501,0.835,0.668,1.336,0.668c0.334,0,0.501,0,0.835-0.167
		C94.299,87.369,94.633,87.369,94.8,87.035z"/>
	<path fill="#FFFFFF" d="M35.534,103.228l2.003-1.002c0.334,0.668,0.668,1.169,1.002,1.336c0.334,0.334,0.835,0.501,1.336,0.501
		c0.668,0,1.169-0.167,1.503-0.334c0.334-0.167,0.501-0.668,0.501-1.169c0-0.334-0.167-0.668-0.334-1.002
		c-0.334-0.334-0.668-0.501-1.336-0.835c-0.167,0-0.167-0.167-0.334-0.167c-1.169-0.501-2.003-0.835-2.504-1.169
		s-0.835-0.668-1.002-1.169c-0.167-0.501-0.334-1.002-0.334-1.503c0-1.002,0.334-1.836,1.169-2.337
		c0.668-0.668,1.669-0.835,2.838-0.835c1.002,0,1.836,0.167,2.504,0.668c0.668,0.501,1.169,1.169,1.502,2.003l-2.003,0.835
		c-0.334-0.501-0.501-1.002-0.835-1.169s-0.835-0.334-1.336-0.334s-0.835,0.167-1.169,0.334c-0.334,0.167-0.501,0.501-0.501,1.002
		c0,0.668,0.668,1.169,2.17,1.669c0.501,0.167,0.835,0.334,1.002,0.334c1.169,0.501,2.003,1.002,2.337,1.503
		c0.501,0.501,0.668,1.169,0.668,2.003c0,1.169-0.334,2.003-1.169,2.671c-0.835,0.668-1.669,1.002-3.005,1.002
		c-1.169,0-2.003-0.167-2.838-0.668C36.536,105.065,35.868,104.23,35.534,103.228z"/>
	<path fill="#FFFFFF" d="M52.563,104.397c-0.334,0.668-0.835,1.169-1.336,1.336c-0.668,0.334-1.336,0.501-2.17,0.501
		c-1.169,0-2.003-0.334-2.671-1.169c-0.668-0.835-1.002-1.836-1.002-3.339s0.334-2.504,1.002-3.339s1.502-1.169,2.671-1.169
		s2.003,0.334,2.671,1.169s1.002,1.836,1.002,3.339v0.167c0,0.167,0,0.167,0,0.167h-5.175c0,0.835,0.167,1.503,0.501,1.836
		s0.835,0.668,1.336,0.668c0.334,0,0.668-0.167,1.002-0.334c0.334-0.167,0.501-0.501,0.835-0.835L52.563,104.397z M47.387,100.557
		h3.172c0-0.501-0.167-1.002-0.501-1.336c-0.334-0.334-0.668-0.501-1.169-0.501c-0.501,0-0.835,0.167-1.169,0.501
		C47.554,99.556,47.387,99.889,47.387,100.557z"/>
	<path fill="#FFFFFF" d="M54.232,106.066v-8.681h2.003v1.503c0.334-0.501,0.668-1.002,1.002-1.169
		c0.334-0.334,0.835-0.334,1.169-0.334h0.167c0,0,0,0,0.167,0v2.17h-0.167c-0.501,0-0.835,0.167-1.336,0.334
		c-0.501,0.167-0.668,0.501-1.002,1.002v5.342h-2.003V106.066z"/>
	<path fill="#FFFFFF" d="M61.745,106.066l-2.838-8.681h2.003l1.503,4.674c0,0.167,0.167,0.334,0.167,0.668
		c0,0.334,0.167,0.668,0.167,1.169c0-0.501,0.167-1.002,0.334-1.669v-0.167l1.503-4.674h2.003l-2.838,8.681L61.745,106.066
		L61.745,106.066z"/>
	<path fill="#FFFFFF" d="M67.922,95.883v-2.003h2.003v2.003H67.922z M67.922,106.066v-8.681h2.003v8.681H67.922z"/>
	<path fill="#FFFFFF" d="M77.103,103.061l1.669,0.835c-0.334,0.668-0.668,1.336-1.336,1.669c-0.668,0.334-1.336,0.501-2.17,0.501
		c-1.169,0-2.17-0.334-2.838-1.169c-0.668-0.835-1.002-1.836-1.002-3.339c0-1.336,0.334-2.504,1.002-3.339
		c0.668-0.835,1.669-1.169,2.838-1.169c0.835,0,1.503,0.167,2.17,0.668c0.501,0.334,1.002,1.002,1.336,1.669l-1.669,0.668
		c-0.167-0.501-0.334-0.835-0.668-1.002c-0.334-0.167-0.501-0.334-0.835-0.334c-0.668,0-1.169,0.167-1.336,0.668
		c-0.334,0.501-0.501,1.169-0.501,2.17c0,0.835,0.167,1.503,0.501,2.003s0.668,0.668,1.336,0.668c0.334,0,0.835-0.167,1.002-0.334
		C76.77,103.729,76.937,103.562,77.103,103.061z"/>
	<path fill="#FFFFFF" d="M86.953,104.397c-0.334,0.668-0.835,1.169-1.336,1.336c-0.668,0.334-1.336,0.501-2.17,0.501
		c-1.169,0-2.003-0.334-2.671-1.169c-0.668-0.835-1.002-1.836-1.002-3.339s0.334-2.504,1.002-3.339
		c0.668-0.835,1.503-1.169,2.671-1.169s2.003,0.334,2.671,1.169c0.668,0.835,1.002,1.836,1.002,3.339v0.167c0,0.167,0,0.167,0,0.167
		h-5.175c0,0.835,0.167,1.503,0.501,1.836c0.334,0.334,0.835,0.668,1.336,0.668c0.334,0,0.668-0.167,1.002-0.334
		c0.334-0.167,0.501-0.501,0.835-0.835L86.953,104.397z M81.778,100.557h3.172c0-0.501-0.167-1.002-0.501-1.336
		c-0.334-0.334-0.668-0.501-1.169-0.501s-0.835,0.167-1.169,0.501C81.945,99.556,81.778,99.889,81.778,100.557z"/>
	<path fill="#FFFFFF" d="M87.788,104.397l1.336-1.169c0.334,0.501,0.668,0.668,1.002,1.002c0.334,0.167,0.668,0.334,1.002,0.334
		s0.668-0.167,0.835-0.334c0.167-0.167,0.501-0.334,0.501-0.668c0-0.501-0.501-0.835-1.336-1.169c-0.167,0-0.167,0-0.167-0.167
		c-1.169-0.334-1.836-0.835-2.17-1.169c-0.334-0.334-0.501-0.835-0.501-1.503c0-0.668,0.334-1.336,0.835-1.836
		c0.501-0.501,1.336-0.668,2.17-0.668c0.668,0,1.169,0.167,1.669,0.334c0.501,0.167,1.002,0.501,1.336,1.002l-1.336,1.169
		c-0.334-0.334-0.501-0.501-0.835-0.668c-0.334-0.167-0.501-0.167-0.835-0.167c-0.334,0-0.668,0-0.835,0.167
		c-0.167,0.167-0.334,0.334-0.334,0.668c0,0.334,0.501,0.668,1.336,1.002c0.167,0.167,0.501,0.167,0.501,0.167
		c1.002,0.334,1.503,0.668,1.836,1.169c0.334,0.334,0.501,1.002,0.501,1.669c0,0.835-0.334,1.503-0.835,2.003
		s-1.336,0.668-2.17,0.668c-0.668,0-1.336-0.167-1.836-0.501C88.79,105.566,88.289,105.065,87.788,104.397z"/>
</g>
</svg>
