<?xml version="1.0" encoding="utf-8"?>
<!-- Generator: Adobe Illustrator 17.0.0, SVG Export Plug-In . SVG Version: 6.00 Build 0)  -->
<!DOCTYPE svg PUBLIC "-//W3C//DTD SVG 1.1//EN" "http://www.w3.org/Graphics/SVG/1.1/DTD/svg11.dtd">
<svg version="1.1" id="Layer_1" xmlns="http://www.w3.org/2000/svg" xmlns:xlink="http://www.w3.org/1999/xlink" x="0px" y="0px"
	 width="130px" height="130px" viewBox="0 0 130 130" enable-background="new 0 0 130 130" xml:space="preserve">
<g>
	<path fill="#254778" d="M5,42.178c0-5.5,3.96-12.137,8.8-14.75L56.7,4.275c4.84-2.612,12.76-2.612,17.6,0l42.9,23.154
		c4.84,2.612,8.8,9.25,8.8,14.75v45.306c0,5.5-3.96,12.137-8.8,14.75l-42.9,23.154c-4.84,2.612-12.76,2.612-17.6,0l-42.9-23.154
		C8.96,99.622,5,92.985,5,87.485V42.178z"/>
</g>
<g>
	<path fill="#FFFFFF" d="M36.365,98.805V85.449h3.673l2.003,6.511c0.167,0.501,0.334,1.169,0.501,1.669
		c0.167,0.501,0.167,1.169,0.334,1.669c0.167-0.501,0.167-1.002,0.334-1.503c0.167-0.501,0.334-1.169,0.501-1.836l2.003-6.511h3.506
		v13.356h-2.17V87.619c-0.167,0.501-0.167,1.002-0.334,1.503c-0.167,0.501-0.334,1.002-0.501,1.503l-2.671,8.18h-1.836l-2.337-8.18
		c-0.167-0.835-0.501-1.503-0.501-1.836c0-0.334-0.167-0.835-0.334-1.002v11.018H36.365z"/>
	<path fill="#FFFFFF" d="M50.889,93.963c0-1.503,0.334-2.838,1.169-3.673c0.668-0.835,1.669-1.336,3.005-1.336
		s2.337,0.501,3.005,1.336c0.668,0.835,1.169,2.17,1.169,3.673s-0.334,2.838-1.169,3.673c-0.668,0.835-1.669,1.336-3.005,1.336
		s-2.337-0.501-3.005-1.336C51.39,96.801,50.889,95.466,50.889,93.963z M53.226,93.963c0,1.002,0.167,1.836,0.501,2.337
		c0.334,0.501,0.835,0.835,1.336,0.835c0.668,0,1.002-0.334,1.336-0.835c0.334-0.501,0.501-1.336,0.501-2.337
		c0-1.002-0.167-1.836-0.501-2.337c-0.334-0.501-0.835-0.668-1.336-0.668c-0.668,0-1.002,0.334-1.336,0.835
		C53.393,92.294,53.226,92.962,53.226,93.963z"/>
	<path fill="#FFFFFF" d="M60.906,98.805c0-0.501,0-1.002,0-1.336s0-0.668,0-0.835V85.449h2.17v4.674
		c0.334-0.334,0.668-0.668,1.002-0.835c0.334-0.167,0.835-0.334,1.336-0.334c1.002,0,2.003,0.501,2.671,1.336
		c0.668,0.835,1.002,2.17,1.002,3.673s-0.334,2.671-1.002,3.673c-0.668,1.002-1.669,1.336-2.671,1.336
		c-0.501,0-1.002-0.167-1.336-0.334c-0.334-0.167-0.835-0.501-1.169-1.002l-0.334,1.169H60.906z M63.076,96.3
		c0.334,0.334,0.668,0.501,0.835,0.668s0.501,0.167,0.835,0.167c0.668,0,1.169-0.334,1.503-0.835
		c0.334-0.501,0.501-1.336,0.501-2.337c0-1.002-0.167-1.669-0.501-2.337c-0.334-0.501-0.835-0.835-1.503-0.835
		c-0.334,0-0.501,0-0.835,0.167s-0.501,0.334-0.835,0.668V96.3z"/>
	<path fill="#FFFFFF" d="M70.922,87.619v-2.17h2.337v2.17H70.922z M70.922,98.805v-9.683h2.337v9.683H70.922z"/>
	<path fill="#FFFFFF" d="M75.597,98.805V85.449h2.337v13.356H75.597z"/>
	<path fill="#FFFFFF" d="M80.271,87.619v-2.17h2.337v2.17H80.271z M80.271,98.805v-9.683h2.337v9.683H80.271z"/>
	<path fill="#FFFFFF" d="M87.617,95.967c0,0.501,0,0.835,0.167,0.835c0.167,0,0.334,0.167,0.668,0.167c0.167,0,0.334,0,0.501,0
		s0.334,0,0.501,0v1.836c-0.334,0-0.501,0.167-0.835,0.167c-0.334,0-0.668,0-1.002,0c-0.835,0-1.336-0.167-1.669-0.501
		c-0.334-0.334-0.501-1.002-0.501-1.669v-5.676h-1.169v-1.836h1.169v-3.005h2.337v3.005h1.669v1.836h-1.836V95.967z"/>
	<path fill="#FFFFFF" d="M93.293,98.471l-3.339-9.349h2.337l2.17,6.344l2.003-6.344h2.17l-3.005,9.015
		c-0.501,1.669-1.169,2.838-1.669,3.339s-1.336,0.668-2.17,0.668c-0.167,0-0.334,0-0.501,0c-0.167,0-0.334,0-0.501-0.167v-1.836
		c0.167,0,0.334,0,0.501,0c0.167,0,0.334,0,0.501,0c0.501,0,0.835-0.167,1.169-0.501C92.959,99.639,93.126,99.138,93.293,98.471z"/>
	<path fill="#FFFFFF" d="M72.926,50.057c0,0,0,2.337,0,3.84c0,2.838,0,5.676,0,8.347c0,0.501,0,1.169-0.167,1.669
		c-0.334,1.502-1.836,2.671-3.339,2.838c-0.501,0-1.169,0-1.836,0c-2.337,0-4.841,0-7.179,0c-1.669,0-3.172,0-4.841,0
		c-1.836,0-3.506-1.669-3.673-3.506c0-1.836,0-3.673,0-5.509c0-4.007,0-8.013,0-12.02s0-7.846,0-11.853
		c0-2.337,1.669-4.007,4.007-4.007c4.341,0,8.681,0,13.022,0c2.337,0,4.007,1.669,4.007,4.007c0,1.669,0,6.01,0,6.01
		s-1.836,1.002-1.836,0.835c0-0.835,0-3.84,0-4.674c0-1.336-0.835-2.337-2.17-2.337c-4.341,0-8.681,0-13.022,0
		c-1.336,0-2.337,1.169-2.17,2.337c0,0.835,0,1.836,0,2.671c0,3.84,0,7.846,0,11.686c0,2.504,0,5.175,0,7.679
		c0,1.169,0.835,2.17,2.17,2.17c1.836,0,3.84,0,5.676,0c2.337,0,4.841,0,7.179,0c1.002,0,1.836-0.167,2.17-1.169
		c0.167-0.334,0.167-0.501,0.167-0.835c0-2.17,0-4.341,0-6.511c0-1.169,0,0.167,0-1.002L72.926,50.057z M62.408,61.743
		c-1.169,0-2.003,0.835-2.003,2.003c0,1.002,1.002,1.836,2.003,1.836c1.002,0,1.836-1.002,1.836-2.003
		C64.412,62.578,63.577,61.743,62.408,61.743z M62.575,31.526L62.575,31.526c-1.002,0-1.836,0-2.838,0c-0.167,0-0.167,0-0.334,0
		c-0.167,0.167-0.334,0.167-0.334,0.334c0,0.167,0.167,0.334,0.334,0.334c0,0,0.167,0,0.334,0c1.669,0,3.339,0,5.008,0
		c0.334,0,0.668,0,1.002,0c0.167,0,0.334-0.167,0.334-0.334c0-0.167-0.167-0.334-0.334-0.334H65.58
		C64.412,31.526,63.41,31.526,62.575,31.526z"/>
	<path fill="#FFFFFF" d="M74.094,48.387c0,0-4.674,1.669-6.344,1.669c-1.169,0-2.504,0.167-2.838-2.838
		c-0.167-2.504,3.339-4.007,4.507-4.507c2.337-0.835,6.511-2.671,8.347-2.671c1.503,0,3.172,1.002,3.339,3.673
		c0,2.671,0,10.684,0,10.684s0.167,2.17-0.668,3.005c-1.336,1.336-6.01,6.01-6.01,6.01L74.094,48.387z"/>
	<path fill="#FFFFFF" d="M50.388,38.037v18.865c0,0-4.674-1.002-4.341-4.007c0,0,0.167-2.838,2.838-3.172
		c0,0-1.836-1.669-1.336-3.506c0.501-1.836,2.337-2.504,2.671-2.504v-0.501C50.388,43.212,47.717,41.376,50.388,38.037z"/>
	<path fill="#FFFFFF" d="M72.759,72.427c-0.668,0-1.169-0.167-1.669-0.668c-0.835-0.835-0.835-2.337,0-3.339l11.018-11.018
		c0.835-0.835,2.337-0.835,3.339,0c0.835,0.835,0.835,2.337,0,3.339L74.428,71.76C73.927,72.093,73.26,72.427,72.759,72.427z"/>
	<path fill="#FFFFFF" d="M72.926,49.222"/>
</g>
</svg>
