<?xml version="1.0" encoding="utf-8"?>
<!-- Generator: Adobe Illustrator 17.0.0, SVG Export Plug-In . SVG Version: 6.00 Build 0)  -->
<!DOCTYPE svg PUBLIC "-//W3C//DTD SVG 1.1//EN" "http://www.w3.org/Graphics/SVG/1.1/DTD/svg11.dtd">
<svg version="1.1" id="Layer_1" xmlns="http://www.w3.org/2000/svg" xmlns:xlink="http://www.w3.org/1999/xlink" x="0px" y="0px"
	 width="130px" height="130px" viewBox="0 0 130 130" enable-background="new 0 0 130 130" xml:space="preserve">
<g>
	<g>
		<path fill="#FCDCA4" d="M5,42.347c0-5.5,3.96-12.137,8.8-14.75L56.7,4.443c4.84-2.612,12.76-2.612,17.6,0l42.9,23.154
			c4.84,2.612,8.8,9.25,8.8,14.75v45.306c0,5.5-3.96,12.137-8.8,14.75l-42.9,23.154c-4.84,2.612-12.76,2.612-17.6,0l-42.9-23.154
			C8.96,99.791,5,93.153,5,87.653V42.347z"/>
	</g>
	<g>
		<path fill="#484849" d="M83.409,53.772v-4.145c0-2.155-1.824-3.979-4.145-3.979H53.897c-2.321,0-4.145,1.824-4.145,3.979v18.238
			c0,2.155,1.824,3.979,4.145,3.979h25.201c2.321,0,4.145-1.824,4.145-3.979v-1.326h-5.471v-2.155h5.471v-2.819h-5.471v-2.155h5.471
			v-3.316h-5.471v-2.155h5.637V53.772z M67.99,60.901v2.819c0,0.663-0.663,1.161-1.492,1.161c-0.829,0-1.492-0.497-1.492-1.161
			v-2.819c-1.161-0.497-1.99-1.658-1.99-2.984c0-1.824,1.492-3.482,3.482-3.482c1.824,0,3.482,1.492,3.482,3.482
			C69.979,59.243,69.15,60.403,67.99,60.901"/>
		<path fill="#484849" d="M57.71,40.176c0-3.648,2.984-6.632,6.632-6.632h4.311c3.648,0,6.632,2.984,6.632,6.632v4.642h4.642V38.85
			c0-4.974-3.979-9.119-9.119-9.119h-8.787c-4.974,0-9.119,3.979-9.119,9.119v5.969h4.808V40.176z"/>
		<path fill="#484849" d="M34.167,94.723l2.321-0.995c0.332,0.663,0.663,1.161,1.161,1.492s0.995,0.497,1.492,0.497
			c0.663,0,1.161-0.166,1.658-0.497s0.497-0.663,0.497-1.161c0-0.332-0.166-0.829-0.497-0.995c-0.332-0.332-0.829-0.497-1.492-0.829
			c-0.166,0-0.166-0.166-0.497-0.166c-1.326-0.497-2.155-0.829-2.653-1.161c-0.497-0.332-0.829-0.663-1.161-1.161
			c-0.332-0.497-0.332-0.995-0.332-1.658c0-0.995,0.332-1.99,1.161-2.653c0.829-0.663,1.824-0.995,3.15-0.995
			c1.161,0,1.99,0.166,2.819,0.663c0.829,0.497,1.326,1.161,1.658,2.155l-2.321,0.829c-0.332-0.663-0.663-0.995-0.995-1.326
			c-0.332-0.332-0.829-0.332-1.326-0.332c-0.497,0-0.995,0.166-1.326,0.332c-0.332,0.332-0.497,0.663-0.497,0.995
			c0,0.663,0.829,1.326,2.321,1.824c0.497,0.166,0.829,0.332,1.161,0.497c1.326,0.497,2.155,1.161,2.653,1.658
			c0.497,0.497,0.663,1.326,0.663,2.155c0,1.161-0.332,2.155-1.161,2.819c-0.829,0.663-1.824,0.995-3.316,0.995
			c-1.161,0-2.321-0.332-3.15-0.829C35.162,96.547,34.499,95.718,34.167,94.723z"/>
		<path fill="#484849" d="M52.736,95.884c-0.332,0.663-0.829,1.161-1.492,1.492c-0.663,0.332-1.492,0.497-2.321,0.497
			c-1.326,0-2.321-0.497-2.984-1.326c-0.663-0.829-0.995-2.155-0.995-3.648s0.332-2.819,0.995-3.648
			c0.663-0.829,1.658-1.326,2.984-1.326s2.155,0.497,2.984,1.326c0.663,0.829,0.995,1.99,0.995,3.648v0.166v0.166h-5.803
			c0,0.829,0.166,1.658,0.497,1.99c0.332,0.497,0.829,0.663,1.492,0.663c0.497,0,0.829-0.166,1.161-0.332
			c0.332-0.166,0.663-0.497,0.829-0.995L52.736,95.884z M47.099,91.739h3.482c0-0.663-0.166-1.161-0.497-1.492
			c-0.332-0.332-0.663-0.497-1.326-0.497c-0.497,0-0.995,0.166-1.161,0.497C47.265,90.578,47.099,91.076,47.099,91.739z"/>
		<path fill="#484849" d="M60.031,94.558l1.824,0.995c-0.332,0.829-0.829,1.326-1.492,1.824c-0.663,0.332-1.326,0.663-2.321,0.663
			c-1.326,0-2.321-0.497-3.15-1.326c-0.663-0.829-0.995-1.99-0.995-3.648c0-1.492,0.332-2.819,1.161-3.648
			c0.663-0.829,1.824-1.326,2.984-1.326c0.829,0,1.658,0.166,2.321,0.663c0.663,0.497,1.161,0.995,1.326,1.824l-1.824,0.829
			c-0.166-0.497-0.332-0.829-0.663-1.161c-0.332-0.332-0.663-0.332-0.995-0.332c-0.663,0-1.161,0.332-1.492,0.829
			s-0.663,1.161-0.663,2.321c0,0.995,0.166,1.658,0.497,2.155c0.332,0.497,0.829,0.663,1.326,0.663s0.829-0.166,1.161-0.332
			C59.368,95.387,59.7,95.055,60.031,94.558z"/>
		<path fill="#484849" d="M68.984,96.547c-0.497,0.497-1.161,0.829-1.492,0.995c-0.497,0.166-0.995,0.332-1.492,0.332
			c-0.829,0-1.492-0.332-1.99-0.829c-0.497-0.497-0.663-1.326-0.663-2.321v-6.632h2.321v6.134c0,0.663,0.166,0.995,0.332,1.326
			c0.166,0.332,0.497,0.332,0.829,0.332c0.332,0,0.663-0.166,0.995-0.332c0.332-0.166,0.663-0.497,1.161-0.829v-6.632h1.99v9.616
			h-2.155v-1.161H68.984z"/>
		<path fill="#484849" d="M73.461,97.708v-9.616h2.155v1.658c0.332-0.663,0.663-0.995,0.995-1.326
			c0.332-0.332,0.829-0.497,1.326-0.497h0.166c0,0,0,0,0.166,0v2.321h-0.166c-0.497,0-0.995,0.166-1.326,0.332
			c-0.497,0.332-0.829,0.663-0.995,1.161v5.803h-2.321V97.708z"/>
		<path fill="#484849" d="M79.761,86.599v-2.155h2.321v2.155H79.761z M79.761,97.708v-9.616h2.321v9.616H79.761z"/>
		<path fill="#484849" d="M86.89,94.889c0,0.497,0,0.829,0.166,0.829c0.166,0.166,0.332,0.166,0.663,0.166c0.166,0,0.332,0,0.497,0
			s0.332,0,0.497,0v1.824c-0.332,0-0.497,0.166-0.829,0.166s-0.663,0-0.995,0c-0.829,0-1.326-0.166-1.658-0.497
			c-0.332-0.332-0.497-0.995-0.497-1.658v-5.637h-1.161v-1.99h1.161v-2.984h2.321v2.984h1.824v1.824h-1.824v4.974H86.89z"/>
		<path fill="#484849" d="M92.527,97.376l-3.316-9.285h2.321l2.155,6.3l1.99-6.3h2.155l-2.984,8.953
			c-0.497,1.658-1.161,2.819-1.658,3.316c-0.497,0.497-1.326,0.663-2.155,0.663c-0.166,0-0.332,0-0.497,0
			c-0.166,0-0.332,0-0.497-0.166v-1.824c0.166,0,0.332,0,0.497,0c0.166,0,0.332,0,0.497,0c0.497,0,0.829-0.166,1.161-0.497
			C92.196,98.537,92.362,98.039,92.527,97.376z"/>
	</g>
</g>
</svg>
