<?xml version="1.0" encoding="utf-8"?>
<!-- Generator: Adobe Illustrator 17.0.0, SVG Export Plug-In . SVG Version: 6.00 Build 0)  -->
<!DOCTYPE svg PUBLIC "-//W3C//DTD SVG 1.1//EN" "http://www.w3.org/Graphics/SVG/1.1/DTD/svg11.dtd">
<svg version="1.1" id="Layer_1" xmlns="http://www.w3.org/2000/svg" xmlns:xlink="http://www.w3.org/1999/xlink" x="0px" y="0px"
	 width="2784.5px" height="3176px" viewBox="-2691 -1530.5 2784.5 3176" enable-background="new -2691 -1530.5 2784.5 3176"
	 xml:space="preserve">
<g>
	<g>
		<path fill="#2D2D2D" d="M-1290.833,1526.415c-32.834,0-63.941-7.517-87.616-21.213l-1129.333-651.98
			c-49.165-28.385-87.702-95.134-87.702-151.859V-602.641c0-56.812,38.537-123.518,87.702-151.859l1129.333-651.98
			c47.351-27.391,127.968-27.391,175.319,0l1129.333,651.98c49.165,28.385,87.616,95.09,87.616,151.859V701.362
			c0,56.726-38.451,123.432-87.616,151.859l-1129.333,651.98C-1226.806,1518.897-1257.999,1526.415-1290.833,1526.415z
			 M-1290.833-1383.453c-24.799,0-48.733,5.573-65.496,15.251l-1129.333,651.98c-35.513,20.522-65.583,72.538-65.583,113.581
			V701.362c0,41,30.07,93.017,65.583,113.581l1129.333,651.98c33.612,19.355,97.467,19.398,131.079-0.043L-95.918,814.944
			c35.513-20.565,65.496-72.581,65.496-113.581V-602.641c0-41.043-29.983-93.06-65.496-113.581l-1129.333-651.98
			C-1242.1-1377.88-1265.948-1383.453-1290.833-1383.453z"/>
	</g>
	<g>
		<path fill="#244677" d="M-1301.239-610.066l570.784,330.921l572.559-326.693c-27.305-50.757-84.463-84.121-203.003-152.673
			c-217.458-125.755-506.235-294.294-704.9-408.789c-226.054-130.281-226.139-130.281-458.445,3.312
			c-201.682,115.979-389.791,224.538-389.791,224.538S-2090.81-837.71-2234.199-754.88
			c-111.531,64.423-171.566,96.871-200.499,143.487l568.526,328.575L-1301.239-610.066z"/>
		<path fill="#520456" d="M-1866.176,382.535l0.005-665.352l-568.526-328.575c-29.333,47.258-31.207,111.43-29.417,198.541
			c2.608,126.942-0.48,675.674-0.48,879.272c0,238.829,30.408,253.306,241.666,375.338
			c167.076,96.513,540.881,319.392,762.584,447.458c83.672,48.332,126.061,73.851,169.511,74.63l-6.946-652.309L-1866.176,382.535z"
			/>
		<path fill="#226570" d="M-157.896-605.838L-728.29-280.38l-0.21,658.916l3.593,2.081l-3.593-2.081v2.081l-569.28,330.921
			l-0.421,652.309c57.081,0.884,103.328-29.855,217.118-95.583c178.648-103.197,502.452-284.372,704.012-400.8
			C-121.316,719.727-112.5,719.727-112.5,419.819c0-68.265,0-631.152,0-790.436C-112.5-494.315-132.079-557.85-157.896-605.838z"/>
		<polygon fill="#D1780F" points="-1866.171,-282.817 -1866.171,-282.817 -1866.176,382.535 -1297.78,711.538 -1297.626,51.11 
			-1297.618,49.695 		"/>
		<polygon fill="#F9BE48" points="-1297.543,-612.147 -1301.239,-610.066 -1866.171,-282.817 -1297.618,49.695 -1297.618,49.695 
			-728.29,-280.38 		"/>
		<polygon fill="#FCDCA4" points="-1297.618,49.695 -1297.78,711.538 -728.297,381.848 -728.29,-280.38 		"/>
	</g>
</g>
<g>
	<path fill="#244677" d="M-1996.5-5957.487v-4.452V-5957.487l4.338-2.442l668.916,389.852l1.746,1.018l664.099-383.464
		c-32.049-59.577-97.676-98.739-236.816-179.204c-255.246-147.607-593.473-345.435-826.661-479.826
		c-265.336-152.92-265.07-152.92-537.745,3.888c-236.729,136.134-457.343,263.557-457.343,263.557s-207.402,119.421-375.708,216.644
		c-130.912,75.618-201.334,113.705-235.294,168.422l668.483,386.318L-1996.5-5957.487z"/>
	<path fill="#520456" d="M-2663.5-4794.65l3.885-776.178l0.013-2.543l-667.367-385.673c-34.43,55.471-36.531,128.028-36.531,274.182
		c0,149.033,0,768.942,0,1007.92c0,280.331,5.321,280.331,253.289,423.569c196.11,113.285,650.8,374.894,911.029,525.215
		c98.211,56.731,155.932,86.684,206.932,87.598l0.088-765.664L-2663.5-4794.65z"/>
	<path fill="#226570" d="M-657.401-5952.524l-664.099,383.464v771.969l4.217,2.442l-4.217-2.442v2.442l-670.662,388.427l0,0
		l-0.088,765.664c67,1.038,120.942-35.043,254.506-112.193c209.692-121.13,574.939-333.788,811.524-470.449
		c300.198-173.409,295.72-173.409,295.72-525.433c0-80.127,0-740.83,0-927.792C-630.5-5821.621-627.098-5896.197-657.401-5952.524z"
		/>
	<polygon fill="#D1780F" points="-2659.602,-5573.371 -2659.602,-5573.371 -2663.5,-4794.65 -1992.162,-4406.223 
		-1992.259,-5181.417 -1992.25,-5183.076 	"/>
	<polygon fill="#F9BE48" points="-1992.162,-5959.93 -1996.5,-5957.487 -2659.602,-5573.371 -1992.25,-5183.076 -1992.25,-5183.076 
		-1321.5,-5569.061 -1321.5,-5569.061 	"/>
	<polygon fill="#FCDCA4" points="-1992.25,-5183.076 -1992.162,-4406.223 -1992.162,-4406.223 -1321.5,-4794.65 -1321.5,-4797.092 
		-1321.5,-5569.061 	"/>
	<path fill="#2D2D2D" d="M-1992.727-3481.32c-62.827,0-121.894-34.298-229.123-96.552l-2.69-1.565
		c-151.459-87.936-361.225-208.399-564.084-324.892c-171.297-98.364-333.094-191.275-432.063-248.743l-12.517-7.018
		c-258.411-149.967-274.295-158.945-274.295-470.197v-1100.839c0-321.556,16.797-331.061,290.454-489.858l14.245-8.146
		c180.885-105.02,412.091-235.424,414.404-236.726l0,0c-0.03,0.017,239.836-139.111,497.007-287.761
		c151.162-87.376,227.063-131.229,305.072-131.229c77.1,0,150.371,42.436,296.321,126.979
		c131.12,75.951,288.033,168.376,454.153,266.229c150.266,88.513,305.651,180.04,439.526,257.853
		c288.619,167.759,294.113,176.819,293.873,484.669l-0.014,27.206l0.013,1042.391c0.217,363.119-5.876,373.572-325.941,559.402
		c-132.22,76.767-301.398,175.658-465.005,271.295c-156.833,91.676-304.968,178.269-415.642,242.516l-3.864,2.249
		C-1858.043-3519.786-1924.289-3481.32-1992.727-3481.32z M-1986.293-6851.108c-69.046,0-142.323,42.354-288.311,126.731
		c-257.226,148.69-497.086,287.843-497.086,287.843c-2.487,1.4-233.412,131.698-414.115,236.61l-14.243,8.154
		c-273.254,158.566-273.453,158.566-273.453,460.643v1100.839c0,291.78,0.199,291.78,257.295,440.973l12.208,7.034
		c98.9,57.419,260.713,150.313,431.974,248.661c202.893,116.51,412.72,236.989,564.248,324.974l2.704,1.557
		c105.533,61.273,158.51,92.03,212.339,92.03c59.438,0,127.484-39.504,263.043-118.215l3.865-2.24
		c110.631-64.23,258.746-150.807,415.558-242.475c163.628-95.646,332.828-194.553,465.089-271.336
		c309.375-179.628,309.375-179.628,309.166-530.178l-0.012-29.092l0.014-1040.546c0.229-294.235,0.229-294.235-277.109-455.437
		c-133.959-77.862-289.384-169.415-439.691-257.952c-166.066-97.82-322.922-190.212-453.917-266.098
		C-1847.515-6810.179-1918.173-6851.108-1986.293-6851.108z"/>
</g>
<g>
	<path fill="#2D2D2D" d="M-1038.833-7241.77c-0.371,0-0.723-0.085-0.99-0.24l-12.764-7.369c-0.556-0.321-0.991-1.075-0.991-1.716
		v-14.738c0-0.642,0.436-1.396,0.991-1.716l12.764-7.369c0.535-0.31,1.446-0.31,1.981,0l12.764,7.369
		c0.556,0.321,0.99,1.075,0.99,1.716v14.738c0,0.641-0.435,1.395-0.99,1.716l-12.764,7.369
		C-1038.11-7241.855-1038.462-7241.77-1038.833-7241.77z M-1038.833-7274.657c-0.28,0-0.551,0.063-0.74,0.172l-12.764,7.369
		c-0.401,0.232-0.741,0.82-0.741,1.284v14.738c0,0.463,0.34,1.051,0.741,1.284l12.764,7.369c0.38,0.219,1.102,0.219,1.481,0
		l12.764-7.368c0.401-0.232,0.74-0.82,0.74-1.284v-14.738c0-0.464-0.339-1.052-0.74-1.284l-12.764-7.369
		C-1038.283-7274.594-1038.552-7274.657-1038.833-7274.657z"/>
</g>
<g>
	<path fill="#244677" d="M-1038.951-7265.917l6.451,3.74l6.471-3.692c-0.309-0.574-0.955-0.951-2.294-1.726
		c-2.458-1.421-5.721-3.326-7.967-4.62c-2.555-1.472-2.556-1.472-5.181,0.038c-2.279,1.311-4.405,2.538-4.405,2.538
		s-1.998,1.15-3.619,2.086c-1.26,0.728-1.939,1.095-2.266,1.622l6.425,3.714L-1038.951-7265.917z"/>
	<path fill="#520456" d="M-1045.455-7254.72l0.12-7.498l-6.425-3.714c-0.332,0.534-0.353,1.26-0.333,2.244
		c0.029,1.435-0.005,7.636-0.005,9.938c0,2.699,0.344,2.863,2.731,4.242c1.888,1.091,6.113,3.61,8.619,5.057
		c0.946,0.546,1.425,0.834,1.916,0.843l-0.078-7.372L-1045.455-7254.72z"/>
	<path fill="#226570" d="M-1026.029-7265.869l-6.471,3.692v7.433l0.041,0.023l-0.041-0.023v0.023l-6.433,3.74l0,0l0.011,7.372
		c0.645,0.01,1.171-0.337,2.457-1.08c2.019-1.167,5.688-3.214,7.966-4.53c2.891-1.67,3-1.67,3-5.06c0-0.771,0-7.133,0-8.933
		C-1025.5-7264.608-1025.737-7265.326-1026.029-7265.869z"/>
	<polygon fill="#D1780F" points="-1045.336,-7262.218 -1045.336,-7262.218 -1045.373,-7254.72 -1038.909,-7250.979 
		-1038.91,-7258.444 -1038.91,-7258.46 	"/>
	<polygon fill="#F9BE48" points="-1038.909,-7265.94 -1038.951,-7265.917 -1045.336,-7262.218 -1038.91,-7258.46 -1038.91,-7258.46 
		-1032.452,-7262.176 -1032.452,-7262.176 	"/>
	<polygon fill="#FCDCA4" points="-1038.91,-7258.46 -1038.909,-7250.979 -1038.909,-7250.979 -1032.452,-7254.72 
		-1032.452,-7254.743 -1032.452,-7262.176 	"/>
</g>
</svg>
