<?xml version="1.0" encoding="utf-8"?>
<!-- Generator: Adobe Illustrator 17.0.0, SVG Export Plug-In . SVG Version: 6.00 Build 0)  -->
<!DOCTYPE svg PUBLIC "-//W3C//DTD SVG 1.1//EN" "http://www.w3.org/Graphics/SVG/1.1/DTD/svg11.dtd">
<svg version="1.1" id="Layer_1" xmlns="http://www.w3.org/2000/svg" xmlns:xlink="http://www.w3.org/1999/xlink" x="0px" y="0px"
	 width="130px" height="130px" viewBox="0 0 130 130" enable-background="new 0 0 130 130" xml:space="preserve">
<g>
	<g>
		<path fill="#F9BE48" d="M4.895,42.347c0-5.5,3.762-12.137,8.602-14.75L56.299,4.443c4.84-2.612,12.711-2.612,17.551,0
			l43.073,23.154c4.84,2.612,8.973,9.25,8.973,14.75v45.306c0,5.5-4.158,12.137-8.998,14.75l-42.999,23.154
			c-4.84,2.612-12.81,2.612-17.65,0l-42.727-23.154c-4.84-2.612-8.627-9.25-8.627-14.75V42.347z"/>
	</g>
	<path fill="#FFFFFF" d="M67.433,70.063c-5.551,0-11.287,0-16.837,0c-5.181,0-9.251-3.886-10.176-9.621
		c-0.74-4.626,1.11-9.436,4.441-11.842c0.37-0.185,0.37-0.555,0.555-0.925c0.37-8.511,6.291-15.727,13.692-16.467
		c6.106-0.555,10.917,2.035,14.432,7.771c0.185,0.37,0.37,0.37,0.74,0.37c5.366-1.48,10.732,1.48,12.952,7.401
		c0.185,0.185,0.37,0.555,0.555,0.555c4.441,1.665,7.216,6.476,7.031,11.842c-0.185,5.181-3.33,9.621-7.956,10.732
		c-0.925,0.185-1.665,0.37-2.59,0.37C78.535,70.063,72.984,70.063,67.433,70.063z M48.745,50.82c-0.185,0-0.37,0.185-0.555,0.185
		c-2.59,0.925-4.626,3.886-4.626,7.031c-0.185,4.626,2.96,8.141,6.846,8.141c11.287,0,22.573,0,34.045,0c0.37,0,0.74,0,1.11-0.185
		c3.145-0.555,5.551-3.701,5.736-7.216c0.185-3.701-2.035-7.031-5.181-7.956c-0.555-0.185-1.11-0.185-1.665-0.37
		c-0.555-3.33-2.035-5.736-4.626-7.031c-2.775-1.295-5.366-0.74-7.771,1.11c-1.85-6.846-7.956-10.732-13.877-9.436
		C52.076,36.758,47.82,43.234,48.745,50.82z"/>
	<path fill="#FFFFFF" d="M77.054,48.044H57.812c-0.74,0-1.295,0.555-1.295,1.295v2.405c0,0.74,0.555,1.295,1.295,1.295h19.243
		c0.74,0,1.295-0.555,1.295-1.295V49.34C78.35,48.599,77.795,48.044,77.054,48.044z M75.204,51.56c-0.555,0-0.925-0.37-0.925-0.925
		c0-0.555,0.37-0.925,0.925-0.925c0.555,0,0.925,0.37,0.925,0.925C76.129,51.19,75.759,51.56,75.204,51.56z"/>
	<path fill="#FFFFFF" d="M76.869,53.965H57.812c-0.74,0-1.295,0.555-1.295,1.295v2.405c0,0.74,0.555,1.295,1.295,1.295h19.243
		c0.74,0,1.295-0.555,1.295-1.295V55.26C78.35,54.705,77.61,53.965,76.869,53.965z M75.204,57.666c-0.555,0-0.925-0.37-0.925-0.925
		c0-0.555,0.37-0.925,0.925-0.925c0.555,0,0.925,0.37,0.925,0.925C76.129,57.111,75.759,57.666,75.204,57.666z"/>
	<path fill="#FFFFFF" d="M76.869,60.071H57.812c-0.74,0-1.295,0.555-1.295,1.295v2.405c0,0.74,0.555,1.295,1.295,1.295h19.243
		c0.74,0,1.295-0.555,1.295-1.295v-2.405C78.35,60.626,77.61,60.071,76.869,60.071z M75.204,63.587c-0.555,0-0.925-0.37-0.925-0.925
		s0.37-0.925,0.925-0.925c0.555,0,0.925,0.37,0.925,0.925S75.759,63.587,75.204,63.587z"/>
	<path fill="#FFFFFF" d="M43.565,99.112V85.605h2.59v5.366h5.181v-5.366h2.59v13.507h-2.59v-5.921h-5.181v5.921H43.565z"/>
	<path fill="#FFFFFF" d="M54.666,99.112l4.071-13.507h3.145l4.071,13.507h-2.59l-0.925-2.96h-4.626l-0.925,2.96H54.666z
		 M58.367,93.931h3.516l-1.665-6.106L58.367,93.931z"/>
	<path fill="#FFFFFF" d="M66.693,99.112V85.605h2.775l3.886,6.846c0.37,0.555,0.555,1.11,0.74,1.665
		c0.185,0.555,0.555,1.11,0.74,1.665c0-0.37-0.185-0.74-0.185-1.295c0-0.37,0-0.925,0-1.48V85.79h2.405v13.507h-2.405l-4.256-7.031
		c-0.185-0.37-0.555-0.925-0.74-1.48c-0.185-0.555-0.555-1.11-0.74-1.85c0,0.37,0.185,0.74,0.185,1.295c0,0.37,0,0.925,0,1.48v7.401
		H66.693z"/>
	<path fill="#FFFFFF" d="M77.795,99.112l4.071-13.507h3.145l4.071,13.507h-2.59l-0.925-2.96H80.94l-0.925,2.96H77.795z
		 M81.68,93.931h3.516l-1.665-6.106L81.68,93.931z"/>
</g>
</svg>
