<?xml version="1.0" encoding="utf-8"?>
<!-- Generator: Adobe Illustrator 17.0.0, SVG Export Plug-In . SVG Version: 6.00 Build 0)  -->
<!DOCTYPE svg PUBLIC "-//W3C//DTD SVG 1.1//EN" "http://www.w3.org/Graphics/SVG/1.1/DTD/svg11.dtd">
<svg version="1.1" id="Layer_1" xmlns="http://www.w3.org/2000/svg" xmlns:xlink="http://www.w3.org/1999/xlink" x="0px" y="0px"
	 width="130px" height="130px" viewBox="0 0 130 130" enable-background="new 0 0 130 130" xml:space="preserve">
<g>
	<g>
		<path fill="#226570" d="M4.895,42.347c0-5.5,3.762-12.137,8.602-14.75L56.299,4.443c4.84-2.612,12.711-2.612,17.551,0
			l43.073,23.154c4.84,2.612,8.973,9.25,8.973,14.75v45.306c0,5.5-4.158,12.137-8.998,14.75l-42.999,23.154
			c-4.84,2.612-12.81,2.612-17.65,0l-42.727-23.154c-4.84-2.612-8.627-9.25-8.627-14.75V42.347z"/>
	</g>
	<path fill="#FFFFFF" d="M49.558,52.021c2.337,0,4.674,0,7.012,0c0.167,0,0.334,0,0.668,0c0.167,2.838,1.336,5.175,3.673,6.845
		c1.669,1.169,3.673,1.836,5.843,1.669c4.007-0.167,8.347-3.339,8.514-8.514c2.504,0,5.175,0,7.679,0c0,0.835,0,1.669,0,2.504
		c-0.835,0.167-1.836,0.167-2.671,0.334c-0.501,0-0.835,0.334-1.002,0.668c-0.334,1.002-0.835,2.17-1.336,3.172
		c-0.167,0.334-0.167,0.501,0.167,0.668c0.501,0.668,1.169,1.336,1.669,2.17c-1.169,1.169-2.504,2.337-3.673,3.506
		c-0.668-0.501-1.503-1.002-2.17-1.669c-0.167-0.167-0.334-0.167-0.668-0.167c-1.002,0.334-2.17,0.835-3.172,1.169
		c-0.668,0.167-0.835,0.501-0.835,1.169c-0.167,0.835-0.167,1.669-0.334,2.504c-1.669,0-3.339,0-5.008,0
		c-0.167-0.835-0.334-1.669-0.334-2.504c0-0.501-0.334-0.835-0.835-1.002c-1.169-0.334-2.17-0.835-3.339-1.336
		c-0.334-0.167-0.501-0.167-0.668,0.167c-0.668,0.501-1.502,1.169-2.337,1.669c-1.169-1.169-2.337-2.337-3.673-3.506
		c0.668-0.668,1.169-1.503,1.669-2.17c0.167-0.167,0.334-0.501,0.167-0.668c-0.501-1.002-0.835-2.17-1.336-3.172
		c-0.167-0.501-0.501-0.668-0.835-0.668c-1.002-0.167-1.836-0.167-2.838-0.334C49.558,53.69,49.558,52.855,49.558,52.021z"/>
	<path fill="#FFFFFF" d="M66.42,22.972c0.334,0,0.668,0.167,1.002,0.167c2.337,0.501,3.506,1.836,3.84,4.507
		c0.334,3.506-0.501,6.678-3.005,9.349c-1.503,1.669-3.84,1.669-5.342,0.167c-0.835-0.668-1.336-1.503-1.836-2.504
		c-1.002-2.17-1.503-4.341-1.336-6.845c0.167-2.504,1.836-4.341,4.341-4.674c0.167,0,0.334,0,0.334-0.167
		C65.084,22.972,65.752,22.972,66.42,22.972z"/>
	<path fill="#FFFFFF" d="M64.083,46.178c0.167-0.668,0.167-1.336,0.334-2.003c0.167-1.002,0.334-2.003-0.167-3.005
		c-0.167-0.501,0-0.835,0.501-0.835s1.169,0,1.669,0s0.668,0.334,0.501,0.668c-0.501,0.835-0.334,1.669-0.167,2.504
		c0.167,0.668,0.167,1.502,0.334,2.17c0,0.167,0,0.334,0.167,0.334c0,0,0,0,0.167,0c0.668-2.17,1.503-4.507,2.17-6.678
		c1.336,0.334,2.671,0.668,3.84,1.002c1.169,0.334,2.337,0.668,3.673,1.002c1.002,0.334,1.836,1.002,2.003,2.003
		c0.334,1.336,0.501,2.838,0.668,4.174c0,0.835,0,1.669,0,2.504c-9.349,0-18.698,0-28.047,0c0-0.835,0.167-1.502,0.167-2.337
		c0.167-1.502,0.334-2.838,0.501-4.341c0.167-1.002,0.668-1.669,1.669-2.003c2.671-0.668,5.175-1.336,7.846-2.003
		c0.668,2.17,1.503,4.341,2.17,6.678C63.916,46.345,63.916,46.345,64.083,46.178z"/>
	<path fill="#FFFFFF" d="M32.697,89.249V77.062h3.339l1.669,5.843c0.167,0.501,0.334,1.002,0.334,1.503
		c0.167,0.501,0.167,1.002,0.334,1.503c0.167-0.501,0.167-0.835,0.334-1.336c0.167-0.501,0.334-1.002,0.501-1.669l1.836-5.843h3.172
		v12.187h-2.003V79.066c-0.167,0.501-0.167,0.835-0.334,1.336c-0.167,0.501-0.167,0.835-0.334,1.336l-2.17,7.513h-1.669
		l-2.337-7.513c-0.167-0.835-0.334-1.336-0.501-1.669C34.7,79.733,34.7,79.4,34.7,79.066v10.184H32.697z"/>
	<path fill="#FFFFFF" d="M51.061,89.249l-0.167-0.835c-0.334,0.334-0.835,0.501-1.169,0.668c-0.501,0.167-0.835,0.167-1.336,0.167
		c-0.668,0-1.336-0.167-1.669-0.668c-0.501-0.334-0.668-1.002-0.668-1.669c0-1.002,0.334-1.669,1.169-2.337
		c0.835-0.501,2.003-1.002,3.84-1.169v-0.668c0-0.334-0.167-0.501-0.334-0.668c-0.167-0.167-0.501-0.334-0.835-0.334
		c-0.334,0-0.835,0.167-1.002,0.334c-0.334,0.167-0.668,0.501-0.835,0.668l-1.336-0.835c0.334-0.501,0.835-1.002,1.336-1.336
		s1.169-0.501,2.003-0.501c1.002,0,1.836,0.167,2.337,0.668s0.835,1.169,0.835,1.836v5.175c0,0.167,0,0.334,0,0.501
		s0,0.501,0.167,0.668h-2.337V89.249z M50.894,84.909c-1.002,0.167-1.669,0.334-2.17,0.668s-0.668,0.668-0.668,1.169
		c0,0.334,0,0.501,0.167,0.668c0.167,0.167,0.334,0.167,0.668,0.167c0.334,0,0.668,0,1.002-0.167
		c0.334-0.167,0.668-0.334,1.002-0.668L50.894,84.909L50.894,84.909z"/>
	<path fill="#FFFFFF" d="M55.068,89.249v-8.681h1.836v1.002c0.501-0.501,1.002-0.835,1.503-1.002
		c0.334-0.167,0.835-0.334,1.336-0.334c0.835,0,1.503,0.167,1.836,0.668c0.334,0.501,0.668,1.169,0.668,2.17v6.01h-2.003v-5.676
		c0-0.501,0-1.002-0.167-1.169s-0.334-0.334-0.835-0.334c-0.334,0-0.668,0-1.002,0.167c-0.334,0.167-0.668,0.334-1.002,0.668v6.344
		h-2.17V89.249z"/>
	<path fill="#FFFFFF" d="M68.924,89.249l-0.167-0.835c-0.334,0.334-0.835,0.501-1.169,0.668c-0.501,0.167-0.835,0.167-1.336,0.167
		c-0.668,0-1.336-0.167-1.669-0.668c-0.501-0.334-0.668-1.002-0.668-1.669c0-1.002,0.334-1.669,1.169-2.337
		c0.835-0.501,2.003-1.002,3.84-1.169v-0.668c0-0.334-0.167-0.501-0.334-0.668c-0.167-0.167-0.501-0.334-0.835-0.334
		c-0.334,0-0.835,0.167-1.002,0.334c-0.334,0.167-0.668,0.501-0.835,0.668l-1.336-0.835c0.334-0.501,0.835-1.002,1.336-1.336
		s1.169-0.501,2.003-0.501c1.002,0,1.836,0.167,2.337,0.668c0.501,0.501,0.835,1.169,0.835,1.836v5.175c0,0.167,0,0.334,0,0.501
		s0,0.501,0.167,0.668h-2.337V89.249z M68.59,84.909c-1.002,0.167-1.669,0.334-2.17,0.668s-0.668,0.668-0.668,1.169
		c0,0.334,0,0.501,0.167,0.668c0.167,0.167,0.334,0.167,0.668,0.167s0.668,0,1.002-0.167c0.334-0.167,0.668-0.334,1.002-0.668
		L68.59,84.909L68.59,84.909z"/>
	<path fill="#FFFFFF" d="M73.598,88.582c-0.501-0.167-0.668-0.334-0.835-0.668c-0.167-0.167-0.334-0.501-0.334-0.668
		c0-0.334,0.167-0.668,0.334-0.835c0.167-0.334,0.501-0.501,1.002-0.668c-0.334-0.167-0.668-0.501-0.835-1.002
		c-0.167-0.501-0.334-0.835-0.334-1.336c0-0.835,0.334-1.669,1.002-2.17c0.668-0.501,1.336-0.835,2.337-0.835
		c0.334,0,0.835,0,1.169,0.167c0.334,0.167,0.668,0.334,1.002,0.501c0.167-0.334,0.501-0.501,0.668-0.668
		c0.334-0.167,0.501-0.167,0.835-0.167h0.167c0,0,0,0,0.167,0v1.503l0,0c-0.167,0-0.334,0-0.334,0c-0.167,0-0.334,0-0.334,0
		c-0.167,0-0.167,0.167-0.334,0.167c0.167,0.167,0.167,0.334,0.334,0.668c0.167,0.334,0.167,0.501,0.167,0.835
		c0,0.835-0.334,1.503-0.835,2.003c-0.668,0.501-1.336,0.835-2.337,0.835c-0.167,0-0.334,0-0.501,0c-0.167,0-0.334,0-0.501,0
		c-0.167,0-0.334,0.167-0.501,0.334C74.6,86.745,74.6,86.745,74.6,86.912c0,0.334,0.501,0.501,1.669,0.668c0.334,0,0.501,0,0.668,0
		c1.169,0.167,2.17,0.334,2.504,0.668c0.501,0.334,0.668,0.835,0.668,1.669s-0.334,1.503-1.002,2.003
		c-0.668,0.501-1.669,0.668-3.005,0.668c-1.169,0-2.17-0.167-2.838-0.501c-0.668-0.334-1.002-0.835-1.002-1.669
		c0-0.334,0.167-0.668,0.334-1.002C72.597,88.915,73.098,88.748,73.598,88.582z M74.934,89.082
		c-0.334,0.167-0.501,0.334-0.668,0.501c-0.167,0.167-0.167,0.334-0.167,0.501c0,0.334,0.167,0.501,0.501,0.668
		c0.334,0.167,0.668,0.334,1.169,0.334c0.668,0,1.169-0.167,1.669-0.334c0.334-0.167,0.668-0.501,0.668-0.835
		c0-0.167-0.167-0.334-0.334-0.501c-0.167-0.167-0.501-0.167-0.835-0.167L74.934,89.082z M74.433,83.406
		c0,0.501,0.167,0.835,0.334,1.002c0.167,0.167,0.668,0.334,1.002,0.334c0.501,0,0.835-0.167,1.002-0.334s0.334-0.668,0.334-1.002
		c0-0.501-0.167-0.835-0.334-1.002c-0.334-0.334-0.668-0.334-1.002-0.334c-0.334,0-0.668,0.167-1.002,0.334
		C74.6,82.572,74.433,82.905,74.433,83.406z"/>
	<path fill="#FFFFFF" d="M87.789,87.58c-0.334,0.668-0.835,1.169-1.336,1.336c-0.668,0.334-1.336,0.501-2.17,0.501
		c-1.169,0-2.003-0.334-2.671-1.169c-0.668-0.835-1.002-1.836-1.002-3.339s0.334-2.504,1.002-3.339s1.503-1.169,2.671-1.169
		c1.169,0,2.003,0.334,2.671,1.169s1.002,1.836,1.002,3.339v0.167c0,0.167,0,0.167,0,0.167H82.78c0,0.835,0.167,1.503,0.501,1.836
		c0.334,0.334,0.835,0.668,1.336,0.668c0.334,0,0.668-0.167,1.002-0.334c0.334-0.167,0.501-0.501,0.835-0.835L87.789,87.58z
		 M82.613,83.74h3.172c0-0.501-0.167-1.002-0.501-1.336c-0.334-0.334-0.668-0.501-1.169-0.501s-0.835,0.167-1.169,0.501
		C82.947,82.738,82.78,83.072,82.613,83.74z"/>
	<path fill="#FFFFFF" d="M94.633,88.248c-0.334,0.334-0.668,0.668-1.002,0.835c-0.334,0.167-0.835,0.334-1.336,0.334
		c-1.002,0-1.836-0.501-2.504-1.336c-0.668-0.835-1.002-2.003-1.002-3.339c0-1.336,0.334-2.504,1.002-3.339
		c0.668-0.835,1.503-1.336,2.337-1.336c0.501,0,0.835,0,1.169,0.167c0.334,0.167,0.668,0.334,1.002,0.835v-4.174h2.003v10.017
		c0,0.167,0,0.501,0,0.835c0,0.334,0,0.668,0,1.169h-1.669L94.633,88.248z M94.3,86.912v-4.174
		c-0.334-0.334-0.501-0.501-0.835-0.501c-0.167-0.167-0.501-0.167-0.835-0.167c-0.501,0-1.002,0.167-1.336,0.668
		c-0.334,0.501-0.501,1.169-0.501,2.17c0,0.835,0.167,1.669,0.501,2.003c0.334,0.501,0.835,0.668,1.336,0.668
		c0.334,0,0.501,0,0.835-0.167C93.799,87.246,94.133,87.246,94.3,86.912z"/>
	<path fill="#FFFFFF" d="M35.034,103.106l2.003-1.002c0.334,0.668,0.668,1.169,1.002,1.336c0.334,0.334,0.835,0.501,1.336,0.501
		c0.668,0,1.169-0.167,1.503-0.334c0.334-0.167,0.501-0.668,0.501-1.169c0-0.334-0.167-0.668-0.334-1.002
		c-0.334-0.334-0.668-0.501-1.336-0.835c-0.167,0-0.167-0.167-0.334-0.167c-1.169-0.501-2.003-0.835-2.504-1.169
		c-0.501-0.334-0.835-0.668-1.002-1.169c-0.167-0.501-0.334-1.002-0.334-1.503c0-1.002,0.334-1.836,1.169-2.337
		c0.668-0.668,1.669-0.835,2.838-0.835c1.002,0,1.836,0.167,2.504,0.668c0.668,0.501,1.169,1.169,1.502,2.003l-2.003,0.835
		c-0.334-0.501-0.501-1.002-0.835-1.169c-0.334-0.167-0.835-0.334-1.336-0.334s-0.835,0.167-1.169,0.334s-0.501,0.501-0.501,1.002
		c0,0.668,0.668,1.169,2.17,1.669c0.501,0.167,0.835,0.334,1.002,0.334c1.169,0.501,2.003,1.002,2.337,1.503
		c0.501,0.501,0.668,1.169,0.668,2.003c0,1.169-0.334,2.003-1.169,2.671c-0.835,0.668-1.669,1.002-3.005,1.002
		c-1.169,0-2.003-0.167-2.838-0.668C36.036,104.942,35.368,104.107,35.034,103.106z"/>
	<path fill="#FFFFFF" d="M52.063,104.274c-0.334,0.668-0.835,1.169-1.336,1.336c-0.668,0.334-1.336,0.501-2.17,0.501
		c-1.169,0-2.003-0.334-2.671-1.169s-1.002-1.836-1.002-3.339s0.334-2.504,1.002-3.339c0.668-0.835,1.502-1.169,2.671-1.169
		s2.003,0.334,2.671,1.169c0.668,0.835,1.002,1.836,1.002,3.339v0.167c0,0.167,0,0.167,0,0.167h-5.175
		c0,0.835,0.167,1.503,0.501,1.836c0.334,0.334,0.835,0.668,1.336,0.668c0.334,0,0.668-0.167,1.002-0.334
		c0.334-0.167,0.501-0.501,0.835-0.835L52.063,104.274z M46.887,100.435h3.172c0-0.501-0.167-1.002-0.501-1.336
		c-0.334-0.334-0.668-0.501-1.169-0.501c-0.501,0-0.835,0.167-1.169,0.501C47.054,99.433,46.887,99.767,46.887,100.435z"/>
	<path fill="#FFFFFF" d="M53.732,105.944v-8.681h2.003v1.503c0.334-0.501,0.668-1.002,1.002-1.169
		c0.334-0.334,0.835-0.334,1.169-0.334h0.167c0,0,0,0,0.167,0v2.17h-0.167c-0.501,0-0.835,0.167-1.336,0.334
		c-0.501,0.167-0.668,0.501-1.002,1.002v5.342h-2.003V105.944z"/>
	<path fill="#FFFFFF" d="M61.245,105.944l-2.838-8.681h2.003l1.503,4.674c0,0.167,0.167,0.334,0.167,0.668
		c0,0.334,0.167,0.668,0.167,1.169c0-0.501,0.167-1.002,0.334-1.669v-0.167l1.503-4.674h2.003l-2.838,8.681L61.245,105.944
		L61.245,105.944z"/>
	<path fill="#FFFFFF" d="M67.422,95.76v-2.003h2.003v2.003H67.422z M67.422,105.944v-8.681h2.003v8.681H67.422z"/>
	<path fill="#FFFFFF" d="M76.603,102.939l1.669,0.835c-0.334,0.668-0.668,1.336-1.336,1.669s-1.336,0.501-2.17,0.501
		c-1.169,0-2.17-0.334-2.838-1.169c-0.668-0.835-1.002-1.836-1.002-3.339c0-1.336,0.334-2.504,1.002-3.339
		c0.668-0.835,1.669-1.169,2.838-1.169c0.835,0,1.503,0.167,2.17,0.668c0.501,0.334,1.002,1.002,1.336,1.669l-1.669,0.668
		c-0.167-0.501-0.334-0.835-0.668-1.002c-0.334-0.167-0.501-0.334-0.835-0.334c-0.668,0-1.169,0.167-1.336,0.668
		c-0.334,0.501-0.501,1.169-0.501,2.17c0,0.835,0.167,1.503,0.501,2.003s0.668,0.668,1.336,0.668c0.334,0,0.835-0.167,1.002-0.334
		C76.27,103.607,76.437,103.44,76.603,102.939z"/>
	<path fill="#FFFFFF" d="M86.453,104.274c-0.334,0.668-0.835,1.169-1.336,1.336c-0.668,0.334-1.336,0.501-2.17,0.501
		c-1.169,0-2.003-0.334-2.671-1.169s-1.002-1.836-1.002-3.339s0.334-2.504,1.002-3.339c0.668-0.835,1.503-1.169,2.671-1.169
		s2.003,0.334,2.671,1.169c0.668,0.835,1.002,1.836,1.002,3.339v0.167c0,0.167,0,0.167,0,0.167h-5.175
		c0,0.835,0.167,1.503,0.501,1.836c0.334,0.334,0.835,0.668,1.336,0.668c0.334,0,0.668-0.167,1.002-0.334
		c0.334-0.167,0.501-0.501,0.835-0.835L86.453,104.274z M81.278,100.435h3.172c0-0.501-0.167-1.002-0.501-1.336
		c-0.334-0.334-0.668-0.501-1.169-0.501s-0.835,0.167-1.169,0.501C81.445,99.433,81.278,99.767,81.278,100.435z"/>
	<path fill="#FFFFFF" d="M87.288,104.274l1.336-1.169c0.334,0.501,0.668,0.668,1.002,1.002c0.334,0.167,0.668,0.334,1.002,0.334
		s0.668-0.167,0.835-0.334c0.167-0.167,0.501-0.334,0.501-0.668c0-0.501-0.501-0.835-1.336-1.169c-0.167,0-0.167,0-0.167-0.167
		c-1.169-0.334-1.836-0.835-2.17-1.169c-0.334-0.334-0.501-0.835-0.501-1.503c0-0.668,0.334-1.336,0.835-1.836
		s1.336-0.668,2.17-0.668c0.668,0,1.169,0.167,1.669,0.334s1.002,0.501,1.336,1.002l-1.336,1.169
		c-0.334-0.334-0.501-0.501-0.835-0.668c-0.334-0.167-0.501-0.167-0.835-0.167c-0.334,0-0.668,0-0.835,0.167
		c-0.167,0.167-0.334,0.334-0.334,0.668c0,0.334,0.501,0.668,1.336,1.002c0.167,0.167,0.501,0.167,0.501,0.167
		c1.002,0.334,1.503,0.668,1.836,1.169c0.334,0.334,0.501,1.002,0.501,1.669c0,0.835-0.334,1.503-0.835,2.003
		s-1.336,0.668-2.17,0.668c-0.668,0-1.336-0.167-1.836-0.501C88.29,105.443,87.789,104.942,87.288,104.274z"/>
</g>
</svg>
