<?xml version="1.0" encoding="utf-8"?>
<!-- Generator: Adobe Illustrator 17.0.0, SVG Export Plug-In . SVG Version: 6.00 Build 0)  -->
<!DOCTYPE svg PUBLIC "-//W3C//DTD SVG 1.1//EN" "http://www.w3.org/Graphics/SVG/1.1/DTD/svg11.dtd">
<svg version="1.1" id="Layer_1" xmlns="http://www.w3.org/2000/svg" xmlns:xlink="http://www.w3.org/1999/xlink" x="0px" y="0px"
	 width="130px" height="130px" viewBox="0 0 130 130" enable-background="new 0 0 130 130" xml:space="preserve">
<g>
	<g>
		<path fill="#244677" d="M4.895,42.347c0-5.5,3.762-12.137,8.602-14.75L56.299,4.443c4.84-2.612,12.711-2.612,17.551,0
			l43.073,23.154c4.84,2.612,8.973,9.25,8.973,14.75v45.306c0,5.5-4.158,12.137-8.998,14.75l-42.999,23.154
			c-4.84,2.612-12.81,2.612-17.65,0l-42.727-23.154c-4.84-2.612-8.627-9.25-8.627-14.75V42.347z"/>
	</g>
	<path fill="#FFFFFF" d="M35.865,98.973V85.618h3.673l2.003,6.511c0.167,0.501,0.334,1.169,0.501,1.669
		c0.167,0.501,0.167,1.169,0.334,1.669c0.167-0.501,0.167-1.002,0.334-1.503c0.167-0.501,0.334-1.169,0.501-1.836l2.003-6.511h3.506
		v13.356h-2.17V87.788c-0.167,0.501-0.167,1.002-0.334,1.503c-0.167,0.501-0.334,1.002-0.501,1.503l-2.671,8.18h-1.836l-2.337-8.18
		c-0.167-0.835-0.501-1.503-0.501-1.836s-0.167-0.835-0.334-1.002v11.018H35.865z"/>
	<path fill="#FFFFFF" d="M50.389,94.132c0-1.503,0.334-2.838,1.169-3.673c0.668-0.835,1.669-1.336,3.005-1.336
		s2.337,0.501,3.005,1.336c0.668,0.835,1.169,2.17,1.169,3.673s-0.334,2.838-1.169,3.673c-0.668,0.835-1.669,1.336-3.005,1.336
		s-2.337-0.501-3.005-1.336C50.89,96.97,50.389,95.634,50.389,94.132z M52.726,94.132c0,1.002,0.167,1.836,0.501,2.337
		c0.334,0.501,0.835,0.835,1.336,0.835c0.668,0,1.002-0.334,1.336-0.835c0.334-0.501,0.501-1.336,0.501-2.337
		c0-1.002-0.167-1.836-0.501-2.337c-0.334-0.501-0.835-0.668-1.336-0.668c-0.668,0-1.002,0.334-1.336,0.835
		C52.893,92.462,52.726,93.13,52.726,94.132z"/>
	<path fill="#FFFFFF" d="M60.406,98.973c0-0.501,0-1.002,0-1.336s0-0.668,0-0.835V85.618h2.17v4.674
		c0.334-0.334,0.668-0.668,1.002-0.835c0.334-0.167,0.835-0.334,1.336-0.334c1.002,0,2.003,0.501,2.671,1.336
		c0.668,0.835,1.002,2.17,1.002,3.673s-0.334,2.671-1.002,3.673c-0.668,1.002-1.669,1.336-2.671,1.336
		c-0.501,0-1.002-0.167-1.336-0.334c-0.334-0.167-0.835-0.501-1.169-1.002l-0.334,1.169H60.406z M62.576,96.469
		c0.334,0.334,0.668,0.501,0.835,0.668s0.501,0.167,0.835,0.167c0.668,0,1.169-0.334,1.503-0.835
		c0.334-0.501,0.501-1.336,0.501-2.337c0-1.002-0.167-1.669-0.501-2.337c-0.334-0.501-0.835-0.835-1.503-0.835
		c-0.334,0-0.501,0-0.835,0.167c-0.334,0.167-0.501,0.334-0.835,0.668V96.469z"/>
	<path fill="#FFFFFF" d="M70.422,87.788v-2.17h2.337v2.17H70.422z M70.422,98.973V89.29h2.337v9.683H70.422z"/>
	<path fill="#FFFFFF" d="M75.097,98.973V85.618h2.337v13.356H75.097z"/>
	<path fill="#FFFFFF" d="M79.771,87.788v-2.17h2.337v2.17H79.771z M79.771,98.973V89.29h2.337v9.683H79.771z"/>
	<path fill="#FFFFFF" d="M87.117,96.135c0,0.501,0,0.835,0.167,0.835c0.167,0,0.334,0.167,0.668,0.167c0.167,0,0.334,0,0.501,0
		s0.334,0,0.501,0v1.836c-0.334,0-0.501,0.167-0.835,0.167c-0.334,0-0.668,0-1.002,0c-0.835,0-1.336-0.167-1.669-0.501
		c-0.334-0.334-0.501-1.002-0.501-1.669v-5.676h-1.169v-1.836h1.169v-3.005h2.337v3.005h1.669v1.836h-1.836V96.135z"/>
	<path fill="#FFFFFF" d="M92.793,98.639l-3.339-9.349h2.337l2.17,6.344l2.003-6.344h2.17l-3.005,9.015
		c-0.501,1.669-1.169,2.838-1.669,3.339s-1.336,0.668-2.17,0.668c-0.167,0-0.334,0-0.501,0c-0.167,0-0.334,0-0.501-0.167v-1.836
		c0.167,0,0.334,0,0.501,0c0.167,0,0.334,0,0.501,0c0.501,0,0.835-0.167,1.169-0.501C92.459,99.808,92.626,99.307,92.793,98.639z"/>
	<path fill="#FFFFFF" d="M72.426,50.225c0,0,0,2.337,0,3.84c0,2.838,0,5.676,0,8.347c0,0.501,0,1.169-0.167,1.669
		c-0.334,1.503-1.836,2.671-3.339,2.838c-0.501,0-1.169,0-1.836,0c-2.337,0-4.841,0-7.179,0c-1.669,0-3.172,0-4.841,0
		c-1.836,0-3.506-1.669-3.673-3.506c0-1.836,0-3.673,0-5.509c0-4.007,0-8.013,0-12.02c0-4.007,0-7.846,0-11.853
		c0-2.337,1.669-4.007,4.007-4.007c4.341,0,8.681,0,13.022,0c2.337,0,4.007,1.669,4.007,4.007c0,1.669,0,6.01,0,6.01
		s-1.836,1.002-1.836,0.835c0-0.835,0-3.84,0-4.674c0-1.336-0.835-2.337-2.17-2.337c-4.341,0-8.681,0-13.022,0
		c-1.336,0-2.337,1.169-2.17,2.337c0,0.835,0,1.836,0,2.671c0,3.84,0,7.846,0,11.686c0,2.504,0,5.175,0,7.679
		c0,1.169,0.835,2.17,2.17,2.17c1.836,0,3.84,0,5.676,0c2.337,0,4.841,0,7.179,0c1.002,0,1.836-0.167,2.17-1.169
		c0.167-0.334,0.167-0.501,0.167-0.835c0-2.17,0-4.341,0-6.511c0-1.169,0,0.167,0-1.002L72.426,50.225z M61.908,61.911
		c-1.169,0-2.003,0.835-2.003,2.003c0,1.002,1.002,1.836,2.003,1.836c1.002,0,1.836-1.002,1.836-2.003
		C63.912,62.746,63.077,61.911,61.908,61.911z M62.075,31.694L62.075,31.694c-1.002,0-1.836,0-2.838,0c-0.167,0-0.167,0-0.334,0
		c-0.167,0.167-0.334,0.167-0.334,0.334c0,0.167,0.167,0.334,0.334,0.334c0,0,0.167,0,0.334,0c1.669,0,3.339,0,5.008,0
		c0.334,0,0.668,0,1.002,0c0.167,0,0.334-0.167,0.334-0.334c0-0.167-0.167-0.334-0.334-0.334H65.08
		C63.912,31.694,62.91,31.694,62.075,31.694z"/>
	<path fill="#FFFFFF" d="M73.594,48.556c0,0-4.674,1.669-6.344,1.669c-1.169,0-2.504,0.167-2.838-2.838
		c-0.167-2.504,3.339-4.007,4.507-4.508c2.337-0.835,6.511-2.671,8.347-2.671c1.503,0,3.172,1.002,3.339,3.673
		c0,2.671,0,10.684,0,10.684s0.167,2.17-0.668,3.005c-1.336,1.336-6.01,6.01-6.01,6.01L73.594,48.556z"/>
	<path fill="#FFFFFF" d="M49.888,38.205V57.07c0,0-4.674-1.002-4.341-4.007c0,0,0.167-2.838,2.838-3.172
		c0,0-1.836-1.669-1.336-3.506c0.501-1.836,2.337-2.504,2.671-2.504v-0.501C49.888,43.381,47.217,41.544,49.888,38.205z"/>
	<path fill="#FFFFFF" d="M72.259,72.596c-0.668,0-1.169-0.167-1.669-0.668c-0.835-0.835-0.835-2.337,0-3.339l11.018-11.018
		c0.835-0.835,2.337-0.835,3.339,0c0.835,0.835,0.835,2.337,0,3.339L73.928,71.928C73.427,72.262,72.76,72.596,72.259,72.596z"/>
	<path fill="#FFFFFF" d="M72.426,49.391"/>
</g>
</svg>
